<mxfile host="65bd71144e">
    <diagram id="CJ66dnxl5MV2yjCDgY6M" name="Deposito">
        <mxGraphModel dx="2254" dy="878" grid="1" gridSize="10" guides="1" tooltips="1" connect="1" arrows="1" fold="1" page="1" pageScale="1" pageWidth="4681" pageHeight="3300" math="0" shadow="0">
            <root>
                <mxCell id="0"/>
                <mxCell id="1" parent="0"/>
                <mxCell id="136" style="edgeStyle=none;html=1;entryX=0;entryY=0.5;entryDx=0;entryDy=0;" parent="1" source="3" target="135" edge="1">
                    <mxGeometry relative="1" as="geometry"/>
                </mxCell>
                <mxCell id="3" value="AGENTE" style="rounded=0;whiteSpace=wrap;html=1;fillColor=#0050ef;fontColor=#ffffff;strokeColor=#001DBC;" parent="1" vertex="1">
                    <mxGeometry x="960" y="550" width="120" height="60" as="geometry"/>
                </mxCell>
                <mxCell id="140" style="edgeStyle=none;html=1;exitX=0.5;exitY=1;exitDx=0;exitDy=0;entryX=0.75;entryY=0;entryDx=0;entryDy=0;" parent="1" source="12" target="3" edge="1">
                    <mxGeometry relative="1" as="geometry"/>
                </mxCell>
                <mxCell id="12" value="LEGAJO&lt;br&gt;(PK)" style="ellipse;whiteSpace=wrap;html=1;" parent="1" vertex="1">
                    <mxGeometry x="1020" y="420" width="120" height="80" as="geometry"/>
                </mxCell>
                <mxCell id="138" style="edgeStyle=none;html=1;exitX=0;exitY=1;exitDx=0;exitDy=0;entryX=1;entryY=0;entryDx=0;entryDy=0;" parent="1" source="71" target="3" edge="1">
                    <mxGeometry relative="1" as="geometry"/>
                </mxCell>
                <mxCell id="71" value="Rol / Ocupación" style="ellipse;whiteSpace=wrap;html=1;" parent="1" vertex="1">
                    <mxGeometry x="1150" y="435" width="120" height="80" as="geometry"/>
                </mxCell>
                <mxCell id="143" style="edgeStyle=none;html=1;exitX=0.5;exitY=0;exitDx=0;exitDy=0;entryX=0.5;entryY=1;entryDx=0;entryDy=0;" parent="1" source="77" target="3" edge="1">
                    <mxGeometry relative="1" as="geometry"/>
                </mxCell>
                <mxCell id="77" value="Sector de trabajo" style="ellipse;whiteSpace=wrap;html=1;" parent="1" vertex="1">
                    <mxGeometry x="940" y="685" width="120" height="80" as="geometry"/>
                </mxCell>
                <mxCell id="146" style="edgeStyle=none;html=1;entryX=0;entryY=0.5;entryDx=0;entryDy=0;" parent="1" source="89" target="145" edge="1">
                    <mxGeometry relative="1" as="geometry"/>
                </mxCell>
                <mxCell id="89" value="PEDIDO" style="rounded=0;whiteSpace=wrap;html=1;" parent="1" vertex="1">
                    <mxGeometry x="1478" y="550" width="120" height="60" as="geometry"/>
                </mxCell>
                <mxCell id="153" style="edgeStyle=none;html=1;exitX=1;exitY=1;exitDx=0;exitDy=0;entryX=0.25;entryY=0;entryDx=0;entryDy=0;" parent="1" source="90" target="89" edge="1">
                    <mxGeometry relative="1" as="geometry"/>
                </mxCell>
                <mxCell id="90" value="ID_PEDIDO&lt;br&gt;(PK)" style="ellipse;whiteSpace=wrap;html=1;" parent="1" vertex="1">
                    <mxGeometry x="1358" y="445" width="120" height="80" as="geometry"/>
                </mxCell>
                <mxCell id="154" style="edgeStyle=none;html=1;exitX=0.5;exitY=1;exitDx=0;exitDy=0;entryX=0.5;entryY=0;entryDx=0;entryDy=0;" parent="1" source="91" target="89" edge="1">
                    <mxGeometry relative="1" as="geometry"/>
                </mxCell>
                <mxCell id="91" value="LEGAJO_AGENTE&lt;br&gt;(FK)" style="ellipse;whiteSpace=wrap;html=1;" parent="1" vertex="1">
                    <mxGeometry x="1478" y="380" width="120" height="80" as="geometry"/>
                </mxCell>
                <mxCell id="155" style="edgeStyle=none;html=1;exitX=0;exitY=1;exitDx=0;exitDy=0;" parent="1" source="92" target="89" edge="1">
                    <mxGeometry relative="1" as="geometry"/>
                </mxCell>
                <mxCell id="92" value="Nombre y Apellido" style="ellipse;whiteSpace=wrap;html=1;" parent="1" vertex="1">
                    <mxGeometry x="1598" y="445" width="120" height="80" as="geometry"/>
                </mxCell>
                <mxCell id="156" style="edgeStyle=none;html=1;exitX=0;exitY=0;exitDx=0;exitDy=0;entryX=0.75;entryY=1;entryDx=0;entryDy=0;" parent="1" source="93" target="89" edge="1">
                    <mxGeometry relative="1" as="geometry"/>
                </mxCell>
                <mxCell id="93" value="Fecha de solicitud" style="ellipse;whiteSpace=wrap;html=1;" parent="1" vertex="1">
                    <mxGeometry x="1599" y="625" width="120" height="80" as="geometry"/>
                </mxCell>
                <mxCell id="180" style="edgeStyle=none;html=1;entryX=1;entryY=0.5;entryDx=0;entryDy=0;" parent="1" source="97" target="179" edge="1">
                    <mxGeometry relative="1" as="geometry"/>
                </mxCell>
                <mxCell id="298" style="edgeStyle=none;html=1;exitX=1;exitY=0;exitDx=0;exitDy=0;entryX=0;entryY=1;entryDx=0;entryDy=0;" parent="1" source="97" target="299" edge="1">
                    <mxGeometry relative="1" as="geometry">
                        <mxPoint x="2310" y="730" as="targetPoint"/>
                        <Array as="points">
                            <mxPoint x="2210" y="890"/>
                        </Array>
                    </mxGeometry>
                </mxCell>
                <mxCell id="97" value="MATERIALES STOCK" style="rounded=0;whiteSpace=wrap;html=1;fillColor=#008a00;fontColor=#ffffff;strokeColor=#005700;" parent="1" vertex="1">
                    <mxGeometry x="1965" y="984" width="140" height="60" as="geometry"/>
                </mxCell>
                <mxCell id="176" style="edgeStyle=none;html=1;entryX=0.25;entryY=0;entryDx=0;entryDy=0;" parent="1" source="98" target="97" edge="1">
                    <mxGeometry relative="1" as="geometry"/>
                </mxCell>
                <mxCell id="98" value="NRO_ITEM&lt;br&gt;(PK)" style="ellipse;whiteSpace=wrap;html=1;" parent="1" vertex="1">
                    <mxGeometry x="1900" y="864" width="120" height="80" as="geometry"/>
                </mxCell>
                <mxCell id="178" style="edgeStyle=none;html=1;exitX=0.251;exitY=0.925;exitDx=0;exitDy=0;entryX=0.75;entryY=0;entryDx=0;entryDy=0;exitPerimeter=0;" parent="1" source="99" target="97" edge="1">
                    <mxGeometry relative="1" as="geometry"/>
                </mxCell>
                <mxCell id="99" value="ID_PRODUCTO&lt;br&gt;(FK)" style="ellipse;whiteSpace=wrap;html=1;" parent="1" vertex="1">
                    <mxGeometry x="2042" y="855" width="120" height="80" as="geometry"/>
                </mxCell>
                <mxCell id="174" style="edgeStyle=none;html=1;exitX=0;exitY=0;exitDx=0;exitDy=0;entryX=1;entryY=0.75;entryDx=0;entryDy=0;" parent="1" source="100" target="97" edge="1">
                    <mxGeometry relative="1" as="geometry"/>
                </mxCell>
                <mxCell id="100" value="TIPO / CLASIFIC." style="ellipse;whiteSpace=wrap;html=1;" parent="1" vertex="1">
                    <mxGeometry x="2150" y="1044" width="120" height="80" as="geometry"/>
                </mxCell>
                <mxCell id="173" style="edgeStyle=none;html=1;exitX=0.5;exitY=0;exitDx=0;exitDy=0;entryX=0.75;entryY=1;entryDx=0;entryDy=0;" parent="1" source="101" target="97" edge="1">
                    <mxGeometry relative="1" as="geometry"/>
                </mxCell>
                <mxCell id="101" value="DESCRIPCIÓN" style="ellipse;whiteSpace=wrap;html=1;" parent="1" vertex="1">
                    <mxGeometry x="2030" y="1104" width="120" height="80" as="geometry"/>
                </mxCell>
                <mxCell id="172" style="edgeStyle=none;html=1;exitX=0.5;exitY=0;exitDx=0;exitDy=0;entryX=0.25;entryY=1;entryDx=0;entryDy=0;" parent="1" source="102" target="97" edge="1">
                    <mxGeometry relative="1" as="geometry"/>
                </mxCell>
                <mxCell id="102" value="FABRICANTE&lt;br&gt;(FK)" style="ellipse;whiteSpace=wrap;html=1;" parent="1" vertex="1">
                    <mxGeometry x="1900" y="1104" width="120" height="80" as="geometry"/>
                </mxCell>
                <mxCell id="171" style="edgeStyle=none;html=1;exitX=1;exitY=0;exitDx=0;exitDy=0;entryX=0;entryY=0.75;entryDx=0;entryDy=0;" parent="1" source="103" target="97" edge="1">
                    <mxGeometry relative="1" as="geometry"/>
                </mxCell>
                <mxCell id="103" value="ID_COMPRA" style="ellipse;whiteSpace=wrap;html=1;" parent="1" vertex="1">
                    <mxGeometry x="1800" y="1044" width="120" height="80" as="geometry"/>
                </mxCell>
                <mxCell id="170" style="edgeStyle=none;html=1;exitX=1;exitY=1;exitDx=0;exitDy=0;entryX=0;entryY=0.25;entryDx=0;entryDy=0;" parent="1" source="104" target="97" edge="1">
                    <mxGeometry relative="1" as="geometry"/>
                </mxCell>
                <mxCell id="104" value="LOTE / UBICACIÓN" style="ellipse;whiteSpace=wrap;html=1;" parent="1" vertex="1">
                    <mxGeometry x="1780" y="899" width="120" height="80" as="geometry"/>
                </mxCell>
                <mxCell id="175" style="edgeStyle=none;html=1;exitX=0;exitY=0.5;exitDx=0;exitDy=0;entryX=1;entryY=0.25;entryDx=0;entryDy=0;" parent="1" source="105" target="97" edge="1">
                    <mxGeometry relative="1" as="geometry"/>
                </mxCell>
                <mxCell id="105" value="STOCK_DISPONIB." style="ellipse;whiteSpace=wrap;html=1;" parent="1" vertex="1">
                    <mxGeometry x="2160" y="944" width="120" height="80" as="geometry"/>
                </mxCell>
                <mxCell id="183" style="edgeStyle=none;html=1;exitX=0;exitY=0;exitDx=0;exitDy=0;entryX=1;entryY=1;entryDx=0;entryDy=0;" parent="1" source="106" target="182" edge="1">
                    <mxGeometry relative="1" as="geometry"/>
                </mxCell>
                <mxCell id="106" value="MOVIMIENTO" style="rounded=0;whiteSpace=wrap;html=1;" parent="1" vertex="1">
                    <mxGeometry x="1339" y="984" width="120" height="60" as="geometry"/>
                </mxCell>
                <mxCell id="186" style="edgeStyle=none;html=1;exitX=0.5;exitY=1;exitDx=0;exitDy=0;entryX=0.75;entryY=0;entryDx=0;entryDy=0;" parent="1" source="107" target="106" edge="1">
                    <mxGeometry relative="1" as="geometry"/>
                </mxCell>
                <mxCell id="107" value="ID_MOVIMIENTO&lt;br&gt;(PK)" style="ellipse;whiteSpace=wrap;html=1;" parent="1" vertex="1">
                    <mxGeometry x="1390" y="855" width="120" height="80" as="geometry"/>
                </mxCell>
                <mxCell id="185" style="edgeStyle=none;html=1;exitX=1;exitY=1;exitDx=0;exitDy=0;entryX=0.5;entryY=0;entryDx=0;entryDy=0;" parent="1" source="108" target="106" edge="1">
                    <mxGeometry relative="1" as="geometry"/>
                </mxCell>
                <mxCell id="108" value="ID_PEDIDO&lt;br&gt;(FK)" style="ellipse;whiteSpace=wrap;html=1;" parent="1" vertex="1">
                    <mxGeometry x="1265" y="874" width="120" height="80" as="geometry"/>
                </mxCell>
                <mxCell id="190" style="edgeStyle=none;html=1;exitX=1;exitY=0.5;exitDx=0;exitDy=0;entryX=0;entryY=0.5;entryDx=0;entryDy=0;" parent="1" source="110" target="106" edge="1">
                    <mxGeometry relative="1" as="geometry"/>
                </mxCell>
                <mxCell id="110" value="FECHA_EJECUCIÓN" style="ellipse;whiteSpace=wrap;html=1;" parent="1" vertex="1">
                    <mxGeometry x="1170" y="966" width="120" height="80" as="geometry"/>
                </mxCell>
                <mxCell id="158" style="edgeStyle=none;html=1;exitX=1;exitY=0;exitDx=0;exitDy=0;entryX=0.25;entryY=1;entryDx=0;entryDy=0;" parent="1" source="119" target="89" edge="1">
                    <mxGeometry relative="1" as="geometry"/>
                </mxCell>
                <mxCell id="119" value="Tipo de pedido&lt;br&gt;Ingreso / Egreso" style="ellipse;whiteSpace=wrap;html=1;" parent="1" vertex="1">
                    <mxGeometry x="1358" y="620" width="120" height="80" as="geometry"/>
                </mxCell>
                <mxCell id="189" style="edgeStyle=none;html=1;" parent="1" source="120" target="106" edge="1">
                    <mxGeometry relative="1" as="geometry"/>
                </mxCell>
                <mxCell id="120" value="NRO LEG. AGENT.&lt;br&gt;ENTREGADO&lt;br&gt;(FK)" style="ellipse;whiteSpace=wrap;html=1;" parent="1" vertex="1">
                    <mxGeometry x="1430" y="1150" width="120" height="80" as="geometry"/>
                </mxCell>
                <mxCell id="188" style="edgeStyle=none;html=1;exitX=0;exitY=0;exitDx=0;exitDy=0;entryX=1;entryY=0.75;entryDx=0;entryDy=0;" parent="1" source="121" target="106" edge="1">
                    <mxGeometry relative="1" as="geometry"/>
                </mxCell>
                <mxCell id="121" value="NRO LEG SUPER.&lt;br&gt;(FK)" style="ellipse;whiteSpace=wrap;html=1;" parent="1" vertex="1">
                    <mxGeometry x="1520" y="1034" width="120" height="80" as="geometry"/>
                </mxCell>
                <mxCell id="192" style="edgeStyle=none;html=1;exitX=0;exitY=1;exitDx=0;exitDy=0;entryX=1;entryY=0.25;entryDx=0;entryDy=0;" parent="1" source="122" target="106" edge="1">
                    <mxGeometry relative="1" as="geometry"/>
                </mxCell>
                <mxCell id="122" value="CANT. PRODUCTO" style="ellipse;whiteSpace=wrap;html=1;" parent="1" vertex="1">
                    <mxGeometry x="1488" y="914" width="120" height="80" as="geometry"/>
                </mxCell>
                <mxCell id="142" style="edgeStyle=none;html=1;exitX=1;exitY=0;exitDx=0;exitDy=0;entryX=0.25;entryY=1;entryDx=0;entryDy=0;" parent="1" source="68TzaHXhmso7OPI98Nb3-122" target="3" edge="1">
                    <mxGeometry relative="1" as="geometry"/>
                </mxCell>
                <mxCell id="68TzaHXhmso7OPI98Nb3-122" value="Tel. Interno" style="ellipse;whiteSpace=wrap;html=1;" parent="1" vertex="1">
                    <mxGeometry x="820" y="645" width="120" height="80" as="geometry"/>
                </mxCell>
                <mxCell id="141" style="edgeStyle=none;html=1;exitX=1;exitY=0.5;exitDx=0;exitDy=0;entryX=0;entryY=0.5;entryDx=0;entryDy=0;" parent="1" source="123" target="3" edge="1">
                    <mxGeometry relative="1" as="geometry"/>
                </mxCell>
                <mxCell id="123" value="email" style="ellipse;whiteSpace=wrap;html=1;" parent="1" vertex="1">
                    <mxGeometry x="810" y="540" width="120" height="80" as="geometry"/>
                </mxCell>
                <mxCell id="165" style="edgeStyle=none;html=1;entryX=0.5;entryY=0;entryDx=0;entryDy=0;" parent="1" source="125" target="166" edge="1">
                    <mxGeometry relative="1" as="geometry"/>
                </mxCell>
                <mxCell id="345" style="edgeStyle=none;html=1;exitX=1;exitY=1;exitDx=0;exitDy=0;fontSize=14;" parent="1" source="125" target="299" edge="1">
                    <mxGeometry relative="1" as="geometry"/>
                </mxCell>
                <mxCell id="125" value="LISTA_MATERIALES" style="rounded=0;whiteSpace=wrap;html=1;" parent="1" vertex="1">
                    <mxGeometry x="1965" y="551" width="140" height="60" as="geometry"/>
                </mxCell>
                <mxCell id="161" style="edgeStyle=none;html=1;exitX=1;exitY=0;exitDx=0;exitDy=0;entryX=0.393;entryY=1;entryDx=0;entryDy=0;entryPerimeter=0;" parent="1" source="127" target="125" edge="1">
                    <mxGeometry relative="1" as="geometry"/>
                </mxCell>
                <mxCell id="127" value="NRO ITEM&lt;br&gt;(FK)" style="ellipse;whiteSpace=wrap;html=1;" parent="1" vertex="1">
                    <mxGeometry x="1900" y="631" width="120" height="80" as="geometry"/>
                </mxCell>
                <mxCell id="162" style="edgeStyle=none;html=1;exitX=0;exitY=0;exitDx=0;exitDy=0;" parent="1" source="128" target="125" edge="1">
                    <mxGeometry relative="1" as="geometry"/>
                </mxCell>
                <mxCell id="128" value="ID_PRODUCTO&lt;br&gt;(FK)" style="ellipse;whiteSpace=wrap;html=1;" parent="1" vertex="1">
                    <mxGeometry x="2042" y="631" width="120" height="80" as="geometry"/>
                </mxCell>
                <mxCell id="163" style="edgeStyle=none;html=1;exitX=0;exitY=0.5;exitDx=0;exitDy=0;entryX=1;entryY=0.5;entryDx=0;entryDy=0;" parent="1" source="129" target="125" edge="1">
                    <mxGeometry relative="1" as="geometry"/>
                </mxCell>
                <mxCell id="129" value="descripción_producto&lt;br&gt;(FK)" style="ellipse;whiteSpace=wrap;html=1;" parent="1" vertex="1">
                    <mxGeometry x="2140" y="541" width="120" height="80" as="geometry"/>
                </mxCell>
                <mxCell id="159" style="edgeStyle=none;html=1;exitX=0.5;exitY=1;exitDx=0;exitDy=0;entryX=0.5;entryY=0;entryDx=0;entryDy=0;" parent="1" source="132" target="125" edge="1">
                    <mxGeometry relative="1" as="geometry"/>
                </mxCell>
                <mxCell id="132" value="cantidad" style="ellipse;whiteSpace=wrap;html=1;" parent="1" vertex="1">
                    <mxGeometry x="1950" y="430" width="120" height="80" as="geometry"/>
                </mxCell>
                <mxCell id="160" style="edgeStyle=none;html=1;exitX=0;exitY=1;exitDx=0;exitDy=0;entryX=0.75;entryY=0;entryDx=0;entryDy=0;" parent="1" source="133" target="125" edge="1">
                    <mxGeometry relative="1" as="geometry"/>
                </mxCell>
                <mxCell id="133" value="utilizado_en" style="ellipse;whiteSpace=wrap;html=1;" parent="1" vertex="1">
                    <mxGeometry x="2080" y="431" width="120" height="80" as="geometry"/>
                </mxCell>
                <mxCell id="137" style="edgeStyle=none;html=1;entryX=0;entryY=0.5;entryDx=0;entryDy=0;" parent="1" source="135" target="89" edge="1">
                    <mxGeometry relative="1" as="geometry"/>
                </mxCell>
                <mxCell id="135" value="SOLICITA" style="rhombus;whiteSpace=wrap;html=1;" parent="1" vertex="1">
                    <mxGeometry x="1226" y="540" width="150" height="80" as="geometry"/>
                </mxCell>
                <mxCell id="164" style="edgeStyle=none;html=1;exitX=1;exitY=0.5;exitDx=0;exitDy=0;entryX=0;entryY=0.5;entryDx=0;entryDy=0;" parent="1" source="145" target="125" edge="1">
                    <mxGeometry relative="1" as="geometry"/>
                </mxCell>
                <mxCell id="145" value="ASOCIADO" style="rhombus;whiteSpace=wrap;html=1;" parent="1" vertex="1">
                    <mxGeometry x="1719" y="541" width="150" height="80" as="geometry"/>
                </mxCell>
                <mxCell id="167" style="edgeStyle=none;html=1;exitX=0.5;exitY=1;exitDx=0;exitDy=0;entryX=0.5;entryY=0;entryDx=0;entryDy=0;" parent="1" source="166" target="97" edge="1">
                    <mxGeometry relative="1" as="geometry">
                        <mxPoint x="2035" y="869" as="sourcePoint"/>
                    </mxGeometry>
                </mxCell>
                <mxCell id="166" value="CONSULTA" style="rhombus;whiteSpace=wrap;html=1;" parent="1" vertex="1">
                    <mxGeometry x="1960" y="735" width="150" height="80" as="geometry"/>
                </mxCell>
                <mxCell id="181" style="edgeStyle=none;html=1;entryX=1;entryY=0.5;entryDx=0;entryDy=0;" parent="1" source="179" target="106" edge="1">
                    <mxGeometry relative="1" as="geometry"/>
                </mxCell>
                <mxCell id="179" value="MUEVE" style="rhombus;whiteSpace=wrap;html=1;" parent="1" vertex="1">
                    <mxGeometry x="1631" y="974" width="150" height="80" as="geometry"/>
                </mxCell>
                <mxCell id="184" style="edgeStyle=none;html=1;exitX=0.5;exitY=0;exitDx=0;exitDy=0;" parent="1" source="182" target="3" edge="1">
                    <mxGeometry relative="1" as="geometry"/>
                </mxCell>
                <mxCell id="182" value="ENTREGA" style="rhombus;whiteSpace=wrap;html=1;" parent="1" vertex="1">
                    <mxGeometry x="1060" y="845" width="150" height="80" as="geometry"/>
                </mxCell>
                <mxCell id="193" value="RESISTENCIA" style="rounded=0;whiteSpace=wrap;html=1;fillColor=#1ba1e2;fontColor=#ffffff;strokeColor=#006EAF;" parent="1" vertex="1">
                    <mxGeometry x="3025" y="388" width="140" height="60" as="geometry"/>
                </mxCell>
                <mxCell id="196" style="edgeStyle=none;html=1;exitX=0.5;exitY=1;exitDx=0;exitDy=0;entryX=0.5;entryY=0;entryDx=0;entryDy=0;" parent="1" source="197" target="193" edge="1">
                    <mxGeometry relative="1" as="geometry"/>
                </mxCell>
                <mxCell id="197" value="ID_PRODUCTO&lt;br&gt;(FK)" style="ellipse;whiteSpace=wrap;html=1;" parent="1" vertex="1">
                    <mxGeometry x="3044" y="253" width="120" height="80" as="geometry"/>
                </mxCell>
                <mxCell id="198" style="edgeStyle=none;html=1;exitX=0;exitY=0.5;exitDx=0;exitDy=0;" parent="1" source="199" edge="1">
                    <mxGeometry relative="1" as="geometry">
                        <mxPoint x="3160" y="418" as="targetPoint"/>
                    </mxGeometry>
                </mxCell>
                <mxCell id="199" value="TOLERANCIA" style="ellipse;whiteSpace=wrap;html=1;" parent="1" vertex="1">
                    <mxGeometry x="3230" y="378" width="120" height="80" as="geometry"/>
                </mxCell>
                <mxCell id="200" style="edgeStyle=none;html=1;exitX=0.5;exitY=0;exitDx=0;exitDy=0;entryX=0.5;entryY=1;entryDx=0;entryDy=0;" parent="1" source="201" target="193" edge="1">
                    <mxGeometry relative="1" as="geometry"/>
                </mxCell>
                <mxCell id="201" value="HOJA DE DATOS" style="ellipse;whiteSpace=wrap;html=1;" parent="1" vertex="1">
                    <mxGeometry x="3035" y="563" width="120" height="80" as="geometry"/>
                </mxCell>
                <mxCell id="202" style="edgeStyle=none;html=1;exitX=1;exitY=0;exitDx=0;exitDy=0;entryX=0.25;entryY=1;entryDx=0;entryDy=0;" parent="1" source="203" target="193" edge="1">
                    <mxGeometry relative="1" as="geometry"/>
                </mxCell>
                <mxCell id="203" value="FABRICANTE" style="ellipse;whiteSpace=wrap;html=1;" parent="1" vertex="1">
                    <mxGeometry x="2915" y="514" width="120" height="80" as="geometry"/>
                </mxCell>
                <mxCell id="210" style="edgeStyle=none;html=1;exitX=1;exitY=0.5;exitDx=0;exitDy=0;entryX=0;entryY=0.5;entryDx=0;entryDy=0;" parent="1" source="205" target="193" edge="1">
                    <mxGeometry relative="1" as="geometry"/>
                </mxCell>
                <mxCell id="205" value="POTENCIA" style="ellipse;whiteSpace=wrap;html=1;" parent="1" vertex="1">
                    <mxGeometry x="2840" y="403" width="120" height="80" as="geometry"/>
                </mxCell>
                <mxCell id="212" style="edgeStyle=none;html=1;exitX=0;exitY=1;exitDx=0;exitDy=0;entryX=0.75;entryY=0;entryDx=0;entryDy=0;" parent="1" source="211" target="193" edge="1">
                    <mxGeometry relative="1" as="geometry"/>
                </mxCell>
                <mxCell id="211" value="VALOR" style="ellipse;whiteSpace=wrap;html=1;" parent="1" vertex="1">
                    <mxGeometry x="3170" y="263" width="120" height="80" as="geometry"/>
                </mxCell>
                <mxCell id="214" style="edgeStyle=none;html=1;exitX=0;exitY=0;exitDx=0;exitDy=0;entryX=0.75;entryY=1;entryDx=0;entryDy=0;" parent="1" source="213" target="193" edge="1">
                    <mxGeometry relative="1" as="geometry"/>
                </mxCell>
                <mxCell id="213" value="TIPO&lt;br&gt;SMD / THROUGH HOLE" style="ellipse;whiteSpace=wrap;html=1;" parent="1" vertex="1">
                    <mxGeometry x="3150" y="493" width="120" height="80" as="geometry"/>
                </mxCell>
                <mxCell id="215" value="CAPACITOR" style="rounded=0;whiteSpace=wrap;html=1;fillColor=#1ba1e2;fontColor=#ffffff;strokeColor=#006EAF;" parent="1" vertex="1">
                    <mxGeometry x="3025" y="833" width="140" height="60" as="geometry"/>
                </mxCell>
                <mxCell id="216" style="edgeStyle=none;html=1;exitX=1;exitY=1;exitDx=0;exitDy=0;entryX=0.25;entryY=0;entryDx=0;entryDy=0;" parent="1" source="217" target="215" edge="1">
                    <mxGeometry relative="1" as="geometry"/>
                </mxCell>
                <mxCell id="217" value="ID_PRODUCTO&lt;br&gt;(FK)" style="ellipse;whiteSpace=wrap;html=1;" parent="1" vertex="1">
                    <mxGeometry x="2950" y="708" width="120" height="80" as="geometry"/>
                </mxCell>
                <mxCell id="218" style="edgeStyle=none;html=1;exitX=0;exitY=0.5;exitDx=0;exitDy=0;" parent="1" source="219" edge="1">
                    <mxGeometry relative="1" as="geometry">
                        <mxPoint x="3160" y="863" as="targetPoint"/>
                    </mxGeometry>
                </mxCell>
                <mxCell id="219" value="TOLERANCIA" style="ellipse;whiteSpace=wrap;html=1;" parent="1" vertex="1">
                    <mxGeometry x="3230" y="778" width="120" height="80" as="geometry"/>
                </mxCell>
                <mxCell id="220" style="edgeStyle=none;html=1;exitX=0.5;exitY=0;exitDx=0;exitDy=0;entryX=0.5;entryY=1;entryDx=0;entryDy=0;" parent="1" source="221" target="215" edge="1">
                    <mxGeometry relative="1" as="geometry"/>
                </mxCell>
                <mxCell id="221" value="HOJA DE DATOS" style="ellipse;whiteSpace=wrap;html=1;" parent="1" vertex="1">
                    <mxGeometry x="3035" y="1008" width="120" height="80" as="geometry"/>
                </mxCell>
                <mxCell id="222" style="edgeStyle=none;html=1;exitX=1;exitY=0;exitDx=0;exitDy=0;entryX=0.25;entryY=1;entryDx=0;entryDy=0;" parent="1" source="223" target="215" edge="1">
                    <mxGeometry relative="1" as="geometry"/>
                </mxCell>
                <mxCell id="223" value="FABRICANTE" style="ellipse;whiteSpace=wrap;html=1;" parent="1" vertex="1">
                    <mxGeometry x="2920" y="938" width="120" height="80" as="geometry"/>
                </mxCell>
                <mxCell id="224" style="edgeStyle=none;html=1;exitX=1;exitY=0.5;exitDx=0;exitDy=0;entryX=0;entryY=0.5;entryDx=0;entryDy=0;" parent="1" source="225" target="215" edge="1">
                    <mxGeometry relative="1" as="geometry"/>
                </mxCell>
                <mxCell id="225" value="VOLTAGE" style="ellipse;whiteSpace=wrap;html=1;" parent="1" vertex="1">
                    <mxGeometry x="2840" y="823" width="120" height="80" as="geometry"/>
                </mxCell>
                <mxCell id="226" style="edgeStyle=none;html=1;exitX=0;exitY=1;exitDx=0;exitDy=0;entryX=0.75;entryY=0;entryDx=0;entryDy=0;" parent="1" source="227" target="215" edge="1">
                    <mxGeometry relative="1" as="geometry"/>
                </mxCell>
                <mxCell id="227" value="VALOR" style="ellipse;whiteSpace=wrap;html=1;" parent="1" vertex="1">
                    <mxGeometry x="3140" y="708" width="120" height="80" as="geometry"/>
                </mxCell>
                <mxCell id="228" style="edgeStyle=none;html=1;exitX=0;exitY=0;exitDx=0;exitDy=0;entryX=0.75;entryY=1;entryDx=0;entryDy=0;" parent="1" source="229" target="215" edge="1">
                    <mxGeometry relative="1" as="geometry"/>
                </mxCell>
                <mxCell id="229" value="TIPO&lt;br&gt;SMD / THROUGH HOLE" style="ellipse;whiteSpace=wrap;html=1;" parent="1" vertex="1">
                    <mxGeometry x="3150" y="938" width="120" height="80" as="geometry"/>
                </mxCell>
                <mxCell id="230" value="INDUCTOR" style="rounded=0;whiteSpace=wrap;html=1;fillColor=#1ba1e2;fontColor=#ffffff;strokeColor=#006EAF;" parent="1" vertex="1">
                    <mxGeometry x="3025" y="1342" width="140" height="60" as="geometry"/>
                </mxCell>
                <mxCell id="231" style="edgeStyle=none;html=1;exitX=1;exitY=1;exitDx=0;exitDy=0;entryX=0.25;entryY=0;entryDx=0;entryDy=0;" parent="1" source="232" target="230" edge="1">
                    <mxGeometry relative="1" as="geometry"/>
                </mxCell>
                <mxCell id="232" value="ID_PRODUCTO&lt;br&gt;(FK)" style="ellipse;whiteSpace=wrap;html=1;" parent="1" vertex="1">
                    <mxGeometry x="2924" y="1217" width="120" height="80" as="geometry"/>
                </mxCell>
                <mxCell id="233" style="edgeStyle=none;html=1;exitX=0;exitY=0.5;exitDx=0;exitDy=0;" parent="1" source="234" edge="1">
                    <mxGeometry relative="1" as="geometry">
                        <mxPoint x="3160" y="1372" as="targetPoint"/>
                    </mxGeometry>
                </mxCell>
                <mxCell id="234" value="TOLERANCIA" style="ellipse;whiteSpace=wrap;html=1;" parent="1" vertex="1">
                    <mxGeometry x="3230" y="1332" width="120" height="80" as="geometry"/>
                </mxCell>
                <mxCell id="235" style="edgeStyle=none;html=1;exitX=0.5;exitY=0;exitDx=0;exitDy=0;entryX=0.5;entryY=1;entryDx=0;entryDy=0;" parent="1" source="236" target="230" edge="1">
                    <mxGeometry relative="1" as="geometry"/>
                </mxCell>
                <mxCell id="236" value="HOJA DE DATOS" style="ellipse;whiteSpace=wrap;html=1;" parent="1" vertex="1">
                    <mxGeometry x="3035" y="1517" width="120" height="80" as="geometry"/>
                </mxCell>
                <mxCell id="237" style="edgeStyle=none;html=1;exitX=1;exitY=0;exitDx=0;exitDy=0;entryX=0.25;entryY=1;entryDx=0;entryDy=0;" parent="1" source="238" target="230" edge="1">
                    <mxGeometry relative="1" as="geometry"/>
                </mxCell>
                <mxCell id="238" value="FABRICANTE" style="ellipse;whiteSpace=wrap;html=1;" parent="1" vertex="1">
                    <mxGeometry x="2924" y="1443" width="120" height="80" as="geometry"/>
                </mxCell>
                <mxCell id="239" style="edgeStyle=none;html=1;exitX=1;exitY=0.5;exitDx=0;exitDy=0;entryX=0;entryY=0.5;entryDx=0;entryDy=0;" parent="1" source="240" target="230" edge="1">
                    <mxGeometry relative="1" as="geometry"/>
                </mxCell>
                <mxCell id="240" value="RES.PARASITA" style="ellipse;whiteSpace=wrap;html=1;" parent="1" vertex="1">
                    <mxGeometry x="2840" y="1332" width="120" height="80" as="geometry"/>
                </mxCell>
                <mxCell id="241" style="edgeStyle=none;html=1;exitX=0;exitY=1;exitDx=0;exitDy=0;entryX=0.75;entryY=0;entryDx=0;entryDy=0;" parent="1" source="242" target="230" edge="1">
                    <mxGeometry relative="1" as="geometry"/>
                </mxCell>
                <mxCell id="242" value="VALOR" style="ellipse;whiteSpace=wrap;html=1;" parent="1" vertex="1">
                    <mxGeometry x="3140" y="1217" width="120" height="80" as="geometry"/>
                </mxCell>
                <mxCell id="243" style="edgeStyle=none;html=1;exitX=0;exitY=0;exitDx=0;exitDy=0;entryX=0.75;entryY=1;entryDx=0;entryDy=0;" parent="1" source="244" target="230" edge="1">
                    <mxGeometry relative="1" as="geometry"/>
                </mxCell>
                <mxCell id="244" value="TIPO&lt;br&gt;SMD / THROUGH HOLE" style="ellipse;whiteSpace=wrap;html=1;" parent="1" vertex="1">
                    <mxGeometry x="3150" y="1447" width="120" height="80" as="geometry"/>
                </mxCell>
                <mxCell id="246" style="edgeStyle=none;html=1;exitX=0.5;exitY=1;exitDx=0;exitDy=0;" parent="1" source="245" target="230" edge="1">
                    <mxGeometry relative="1" as="geometry"/>
                </mxCell>
                <mxCell id="245" value="TIPO/MATERIAL" style="ellipse;whiteSpace=wrap;html=1;" parent="1" vertex="1">
                    <mxGeometry x="3035" y="1137" width="120" height="80" as="geometry"/>
                </mxCell>
                <mxCell id="247" value="TRANSISTOR" style="rounded=0;whiteSpace=wrap;html=1;fillColor=#1ba1e2;fontColor=#ffffff;strokeColor=#006EAF;" parent="1" vertex="1">
                    <mxGeometry x="3655" y="388" width="140" height="60" as="geometry"/>
                </mxCell>
                <mxCell id="248" style="edgeStyle=none;html=1;exitX=1;exitY=1;exitDx=0;exitDy=0;entryX=0.25;entryY=0;entryDx=0;entryDy=0;" parent="1" source="249" target="247" edge="1">
                    <mxGeometry relative="1" as="geometry"/>
                </mxCell>
                <mxCell id="249" value="ID_PRODUCTO&lt;br&gt;(FK)" style="ellipse;whiteSpace=wrap;html=1;" parent="1" vertex="1">
                    <mxGeometry x="3550" y="263" width="120" height="80" as="geometry"/>
                </mxCell>
                <mxCell id="250" style="edgeStyle=none;html=1;exitX=0;exitY=0.5;exitDx=0;exitDy=0;" parent="1" source="251" edge="1">
                    <mxGeometry relative="1" as="geometry">
                        <mxPoint x="3790" y="418" as="targetPoint"/>
                    </mxGeometry>
                </mxCell>
                <mxCell id="251" value="VCO" style="ellipse;whiteSpace=wrap;html=1;" parent="1" vertex="1">
                    <mxGeometry x="3860" y="378" width="120" height="80" as="geometry"/>
                </mxCell>
                <mxCell id="252" style="edgeStyle=none;html=1;exitX=0.5;exitY=0;exitDx=0;exitDy=0;entryX=0.5;entryY=1;entryDx=0;entryDy=0;" parent="1" source="253" target="247" edge="1">
                    <mxGeometry relative="1" as="geometry"/>
                </mxCell>
                <mxCell id="253" value="HOJA DE DATOS" style="ellipse;whiteSpace=wrap;html=1;" parent="1" vertex="1">
                    <mxGeometry x="3665" y="563" width="120" height="80" as="geometry"/>
                </mxCell>
                <mxCell id="254" style="edgeStyle=none;html=1;exitX=1;exitY=0;exitDx=0;exitDy=0;entryX=0.25;entryY=1;entryDx=0;entryDy=0;" parent="1" source="255" target="247" edge="1">
                    <mxGeometry relative="1" as="geometry"/>
                </mxCell>
                <mxCell id="255" value="FABRICANTE" style="ellipse;whiteSpace=wrap;html=1;" parent="1" vertex="1">
                    <mxGeometry x="3550" y="493" width="120" height="80" as="geometry"/>
                </mxCell>
                <mxCell id="256" style="edgeStyle=none;html=1;exitX=1;exitY=0.5;exitDx=0;exitDy=0;entryX=0;entryY=0.5;entryDx=0;entryDy=0;" parent="1" source="257" target="247" edge="1">
                    <mxGeometry relative="1" as="geometry"/>
                </mxCell>
                <mxCell id="257" value="Ic max" style="ellipse;whiteSpace=wrap;html=1;" parent="1" vertex="1">
                    <mxGeometry x="3470" y="378" width="120" height="80" as="geometry"/>
                </mxCell>
                <mxCell id="258" style="edgeStyle=none;html=1;exitX=0;exitY=1;exitDx=0;exitDy=0;entryX=0.75;entryY=0;entryDx=0;entryDy=0;" parent="1" source="259" target="247" edge="1">
                    <mxGeometry relative="1" as="geometry"/>
                </mxCell>
                <mxCell id="259" value="TIPO" style="ellipse;whiteSpace=wrap;html=1;" parent="1" vertex="1">
                    <mxGeometry x="3770" y="263" width="120" height="80" as="geometry"/>
                </mxCell>
                <mxCell id="260" style="edgeStyle=none;html=1;exitX=0;exitY=0;exitDx=0;exitDy=0;entryX=0.75;entryY=1;entryDx=0;entryDy=0;" parent="1" source="261" target="247" edge="1">
                    <mxGeometry relative="1" as="geometry"/>
                </mxCell>
                <mxCell id="261" value="TIPO&lt;br&gt;SMD / THROUGH HOLE" style="ellipse;whiteSpace=wrap;html=1;" parent="1" vertex="1">
                    <mxGeometry x="3780" y="493" width="120" height="80" as="geometry"/>
                </mxCell>
                <mxCell id="263" style="edgeStyle=none;html=1;entryX=0.5;entryY=0;entryDx=0;entryDy=0;" parent="1" source="262" target="247" edge="1">
                    <mxGeometry relative="1" as="geometry"/>
                </mxCell>
                <mxCell id="262" value="TECNOLOGÍA" style="ellipse;whiteSpace=wrap;html=1;" parent="1" vertex="1">
                    <mxGeometry x="3665" y="193" width="120" height="80" as="geometry"/>
                </mxCell>
                <mxCell id="279" value="IC COMPUERTAS" style="rounded=0;whiteSpace=wrap;html=1;fillColor=#1ba1e2;fontColor=#ffffff;strokeColor=#006EAF;" parent="1" vertex="1">
                    <mxGeometry x="3655" y="909" width="140" height="60" as="geometry"/>
                </mxCell>
                <mxCell id="280" style="edgeStyle=none;html=1;exitX=1;exitY=1;exitDx=0;exitDy=0;entryX=0.25;entryY=0;entryDx=0;entryDy=0;" parent="1" source="281" target="279" edge="1">
                    <mxGeometry relative="1" as="geometry"/>
                </mxCell>
                <mxCell id="281" value="ID_PRODUCTO&lt;br&gt;(FK)" style="ellipse;whiteSpace=wrap;html=1;" parent="1" vertex="1">
                    <mxGeometry x="3550" y="784" width="120" height="80" as="geometry"/>
                </mxCell>
                <mxCell id="282" style="edgeStyle=none;html=1;exitX=0;exitY=0.5;exitDx=0;exitDy=0;" parent="1" source="283" edge="1">
                    <mxGeometry relative="1" as="geometry">
                        <mxPoint x="3790" y="939" as="targetPoint"/>
                    </mxGeometry>
                </mxCell>
                <mxCell id="283" value="LOGICA" style="ellipse;whiteSpace=wrap;html=1;" parent="1" vertex="1">
                    <mxGeometry x="3850" y="864" width="120" height="80" as="geometry"/>
                </mxCell>
                <mxCell id="284" style="edgeStyle=none;html=1;exitX=0.5;exitY=0;exitDx=0;exitDy=0;entryX=0.5;entryY=1;entryDx=0;entryDy=0;" parent="1" source="285" target="279" edge="1">
                    <mxGeometry relative="1" as="geometry"/>
                </mxCell>
                <mxCell id="285" value="HOJA DE DATOS" style="ellipse;whiteSpace=wrap;html=1;" parent="1" vertex="1">
                    <mxGeometry x="3665" y="1084" width="120" height="80" as="geometry"/>
                </mxCell>
                <mxCell id="286" style="edgeStyle=none;html=1;exitX=1;exitY=0;exitDx=0;exitDy=0;entryX=0.25;entryY=1;entryDx=0;entryDy=0;" parent="1" source="287" target="279" edge="1">
                    <mxGeometry relative="1" as="geometry"/>
                </mxCell>
                <mxCell id="287" value="FABRICANTE" style="ellipse;whiteSpace=wrap;html=1;" parent="1" vertex="1">
                    <mxGeometry x="3550" y="1014" width="120" height="80" as="geometry"/>
                </mxCell>
                <mxCell id="288" style="edgeStyle=none;html=1;exitX=1;exitY=0.5;exitDx=0;exitDy=0;entryX=0;entryY=0.5;entryDx=0;entryDy=0;" parent="1" source="289" target="279" edge="1">
                    <mxGeometry relative="1" as="geometry"/>
                </mxCell>
                <mxCell id="289" value="Io max" style="ellipse;whiteSpace=wrap;html=1;" parent="1" vertex="1">
                    <mxGeometry x="3471" y="899" width="120" height="80" as="geometry"/>
                </mxCell>
                <mxCell id="290" style="edgeStyle=none;html=1;exitX=0;exitY=1;exitDx=0;exitDy=0;entryX=0.75;entryY=0;entryDx=0;entryDy=0;" parent="1" source="291" target="279" edge="1">
                    <mxGeometry relative="1" as="geometry"/>
                </mxCell>
                <mxCell id="291" value="VCC" style="ellipse;whiteSpace=wrap;html=1;" parent="1" vertex="1">
                    <mxGeometry x="3770" y="784" width="120" height="80" as="geometry"/>
                </mxCell>
                <mxCell id="292" style="edgeStyle=none;html=1;exitX=0;exitY=0;exitDx=0;exitDy=0;entryX=0.75;entryY=1;entryDx=0;entryDy=0;" parent="1" source="293" target="279" edge="1">
                    <mxGeometry relative="1" as="geometry"/>
                </mxCell>
                <mxCell id="293" value="TIPO&lt;br&gt;SMD / THROUGH HOLE" style="ellipse;whiteSpace=wrap;html=1;" parent="1" vertex="1">
                    <mxGeometry x="3780" y="1014" width="120" height="80" as="geometry"/>
                </mxCell>
                <mxCell id="294" style="edgeStyle=none;html=1;entryX=0.5;entryY=0;entryDx=0;entryDy=0;" parent="1" source="295" target="279" edge="1">
                    <mxGeometry relative="1" as="geometry"/>
                </mxCell>
                <mxCell id="295" value="TECNOLOGÍA" style="ellipse;whiteSpace=wrap;html=1;" parent="1" vertex="1">
                    <mxGeometry x="3665" y="714" width="120" height="80" as="geometry"/>
                </mxCell>
                <mxCell id="297" style="edgeStyle=none;html=1;exitX=0;exitY=0.5;exitDx=0;exitDy=0;entryX=1;entryY=0.75;entryDx=0;entryDy=0;" parent="1" source="296" target="279" edge="1">
                    <mxGeometry relative="1" as="geometry"/>
                </mxCell>
                <mxCell id="296" value="DESCRIPCIÓN" style="ellipse;whiteSpace=wrap;html=1;" parent="1" vertex="1">
                    <mxGeometry x="3900" y="957" width="120" height="80" as="geometry"/>
                </mxCell>
                <mxCell id="300" style="edgeStyle=none;html=1;exitX=1;exitY=0.5;exitDx=0;exitDy=0;entryX=0;entryY=0;entryDx=0;entryDy=0;" parent="1" source="423" target="215" edge="1">
                    <mxGeometry relative="1" as="geometry">
                        <mxPoint x="2800" y="713" as="sourcePoint"/>
                    </mxGeometry>
                </mxCell>
                <mxCell id="301" style="edgeStyle=none;html=1;exitX=0.5;exitY=0;exitDx=0;exitDy=0;entryX=0;entryY=1;entryDx=0;entryDy=0;" parent="1" source="423" target="193" edge="1">
                    <mxGeometry relative="1" as="geometry">
                        <Array as="points">
                            <mxPoint x="2880" y="533"/>
                        </Array>
                        <mxPoint x="2800" y="713" as="sourcePoint"/>
                    </mxGeometry>
                </mxCell>
                <mxCell id="302" style="edgeStyle=none;html=1;entryX=0;entryY=1;entryDx=0;entryDy=0;exitX=1;exitY=0.5;exitDx=0;exitDy=0;" parent="1" source="423" target="247" edge="1">
                    <mxGeometry relative="1" as="geometry">
                        <Array as="points">
                            <mxPoint x="3240" y="653"/>
                        </Array>
                        <mxPoint x="2800" y="713" as="sourcePoint"/>
                    </mxGeometry>
                </mxCell>
                <mxCell id="303" style="edgeStyle=none;html=1;entryX=0;entryY=0;entryDx=0;entryDy=0;exitX=1;exitY=0.5;exitDx=0;exitDy=0;startArrow=none;" parent="1" source="423" target="279" edge="1">
                    <mxGeometry relative="1" as="geometry">
                        <Array as="points">
                            <mxPoint x="3230" y="653"/>
                        </Array>
                        <mxPoint x="2800" y="713" as="sourcePoint"/>
                    </mxGeometry>
                </mxCell>
                <mxCell id="304" style="edgeStyle=none;html=1;exitX=0.5;exitY=1;exitDx=0;exitDy=0;entryX=0;entryY=0;entryDx=0;entryDy=0;" parent="1" source="423" target="230" edge="1">
                    <mxGeometry relative="1" as="geometry">
                        <Array as="points">
                            <mxPoint x="2840" y="1273"/>
                        </Array>
                        <mxPoint x="2800" y="713" as="sourcePoint"/>
                    </mxGeometry>
                </mxCell>
                <mxCell id="422" style="edgeStyle=none;html=1;exitX=1;exitY=0.5;exitDx=0;exitDy=0;entryX=0;entryY=0.5;entryDx=0;entryDy=0;" parent="1" source="299" target="415" edge="1">
                    <mxGeometry relative="1" as="geometry"/>
                </mxCell>
                <mxCell id="299" value="CONTIENE" style="rhombus;whiteSpace=wrap;html=1;" parent="1" vertex="1">
                    <mxGeometry x="2240" y="670" width="150" height="80" as="geometry"/>
                </mxCell>
                <mxCell id="306" style="edgeStyle=none;html=1;exitX=1;exitY=0;exitDx=0;exitDy=0;entryX=0.25;entryY=1;entryDx=0;entryDy=0;" parent="1" source="305" target="106" edge="1">
                    <mxGeometry relative="1" as="geometry"/>
                </mxCell>
                <mxCell id="305" value="INGRESO/EGRESO" style="ellipse;whiteSpace=wrap;html=1;" parent="1" vertex="1">
                    <mxGeometry x="1190" y="1081" width="120" height="80" as="geometry"/>
                </mxCell>
                <mxCell id="307" value="1" style="text;html=1;strokeColor=none;fillColor=none;align=center;verticalAlign=middle;whiteSpace=wrap;rounded=0;strokeWidth=1;fontSize=14;fontStyle=1" parent="1" vertex="1">
                    <mxGeometry x="1185" y="550" width="50" height="30" as="geometry"/>
                </mxCell>
                <mxCell id="308" value="N" style="text;html=1;strokeColor=none;fillColor=none;align=center;verticalAlign=middle;whiteSpace=wrap;rounded=0;strokeWidth=1;fontSize=14;fontStyle=1" parent="1" vertex="1">
                    <mxGeometry x="1350" y="550" width="50" height="30" as="geometry"/>
                </mxCell>
                <mxCell id="309" value="1" style="text;html=1;strokeColor=none;fillColor=none;align=center;verticalAlign=middle;whiteSpace=wrap;rounded=0;strokeWidth=1;fontSize=14;fontStyle=1" parent="1" vertex="1">
                    <mxGeometry x="1668" y="550" width="50" height="30" as="geometry"/>
                </mxCell>
                <mxCell id="310" value="1" style="text;html=1;strokeColor=none;fillColor=none;align=center;verticalAlign=middle;whiteSpace=wrap;rounded=0;strokeWidth=1;fontSize=14;fontStyle=1" parent="1" vertex="1">
                    <mxGeometry x="1869" y="550" width="50" height="30" as="geometry"/>
                </mxCell>
                <mxCell id="311" value="1" style="text;html=1;strokeColor=none;fillColor=none;align=center;verticalAlign=middle;whiteSpace=wrap;rounded=0;strokeWidth=1;fontSize=14;fontStyle=1" parent="1" vertex="1">
                    <mxGeometry x="1992" y="710" width="50" height="30" as="geometry"/>
                </mxCell>
                <mxCell id="312" value="1" style="text;html=1;strokeColor=none;fillColor=none;align=center;verticalAlign=middle;whiteSpace=wrap;rounded=0;strokeWidth=1;fontSize=14;fontStyle=1" parent="1" vertex="1">
                    <mxGeometry x="1992" y="815" width="50" height="30" as="geometry"/>
                </mxCell>
                <mxCell id="313" value="1" style="text;html=1;strokeColor=none;fillColor=none;align=center;verticalAlign=middle;whiteSpace=wrap;rounded=0;strokeWidth=1;fontSize=14;fontStyle=1" parent="1" vertex="1">
                    <mxGeometry x="1771" y="984" width="50" height="30" as="geometry"/>
                </mxCell>
                <mxCell id="314" value="N" style="text;html=1;strokeColor=none;fillColor=none;align=center;verticalAlign=middle;whiteSpace=wrap;rounded=0;strokeWidth=1;fontSize=14;fontStyle=1" parent="1" vertex="1">
                    <mxGeometry x="1591" y="984" width="50" height="30" as="geometry"/>
                </mxCell>
                <mxCell id="315" value="1" style="text;html=1;strokeColor=none;fillColor=none;align=center;verticalAlign=middle;whiteSpace=wrap;rounded=0;strokeWidth=1;fontSize=14;fontStyle=1" parent="1" vertex="1">
                    <mxGeometry x="1190" y="890" width="50" height="30" as="geometry"/>
                </mxCell>
                <mxCell id="316" value="1" style="text;html=1;strokeColor=none;fillColor=none;align=center;verticalAlign=middle;whiteSpace=wrap;rounded=0;strokeWidth=1;fontSize=14;fontStyle=1" parent="1" vertex="1">
                    <mxGeometry x="1120" y="815" width="50" height="30" as="geometry"/>
                </mxCell>
                <mxCell id="317" value="1" style="text;html=1;strokeColor=none;fillColor=none;align=center;verticalAlign=middle;whiteSpace=wrap;rounded=0;strokeWidth=1;fontSize=14;fontStyle=1" parent="1" vertex="1">
                    <mxGeometry x="2230" y="725" width="50" height="30" as="geometry"/>
                </mxCell>
                <mxCell id="318" value="M" style="text;html=1;strokeColor=none;fillColor=none;align=center;verticalAlign=middle;whiteSpace=wrap;rounded=0;strokeWidth=1;fontSize=14;fontStyle=1" parent="1" vertex="1">
                    <mxGeometry x="2850" y="503" width="50" height="30" as="geometry"/>
                </mxCell>
                <mxCell id="319" value="J" style="text;html=1;strokeColor=none;fillColor=none;align=center;verticalAlign=middle;whiteSpace=wrap;rounded=0;strokeWidth=1;fontSize=14;fontStyle=1" parent="1" vertex="1">
                    <mxGeometry x="3250" y="598" width="50" height="30" as="geometry"/>
                </mxCell>
                <mxCell id="320" value="K" style="text;html=1;strokeColor=none;fillColor=none;align=center;verticalAlign=middle;whiteSpace=wrap;rounded=0;strokeWidth=1;fontSize=14;fontStyle=1" parent="1" vertex="1">
                    <mxGeometry x="3310" y="678" width="50" height="30" as="geometry"/>
                </mxCell>
                <mxCell id="321" value="L" style="text;html=1;strokeColor=none;fillColor=none;align=center;verticalAlign=middle;whiteSpace=wrap;rounded=0;strokeWidth=1;fontSize=14;fontStyle=1" parent="1" vertex="1">
                    <mxGeometry x="2850" y="754" width="50" height="30" as="geometry"/>
                </mxCell>
                <mxCell id="322" value="H" style="text;html=1;strokeColor=none;fillColor=none;align=center;verticalAlign=middle;whiteSpace=wrap;rounded=0;strokeWidth=1;fontSize=14;fontStyle=1" parent="1" vertex="1">
                    <mxGeometry x="2820" y="1047" width="50" height="30" as="geometry"/>
                </mxCell>
                <mxCell id="330" style="edgeStyle=none;html=1;exitX=1;exitY=1;exitDx=0;exitDy=0;entryX=0;entryY=0;entryDx=0;entryDy=0;fontSize=14;" parent="1" source="329" target="125" edge="1">
                    <mxGeometry relative="1" as="geometry"/>
                </mxCell>
                <mxCell id="329" value="ENUMERACIÓN&lt;br&gt;(PK)" style="ellipse;whiteSpace=wrap;html=1;" parent="1" vertex="1">
                    <mxGeometry x="1821" y="440" width="120" height="80" as="geometry"/>
                </mxCell>
                <mxCell id="348" style="edgeStyle=none;html=1;exitX=0;exitY=0.5;exitDx=0;exitDy=0;entryX=1;entryY=0.75;entryDx=0;entryDy=0;fontSize=14;" parent="1" source="347" target="215" edge="1">
                    <mxGeometry relative="1" as="geometry"/>
                </mxCell>
                <mxCell id="347" value="TIPO/MATERIAL" style="ellipse;whiteSpace=wrap;html=1;" parent="1" vertex="1">
                    <mxGeometry x="3250" y="868" width="120" height="80" as="geometry"/>
                </mxCell>
                <mxCell id="354" style="edgeStyle=none;html=1;exitX=0;exitY=0;exitDx=0;exitDy=0;entryX=0.75;entryY=1;entryDx=0;entryDy=0;fontSize=14;" parent="1" source="353" target="106" edge="1">
                    <mxGeometry relative="1" as="geometry"/>
                </mxCell>
                <mxCell id="353" value="NOMBRE SUPER.&lt;br&gt;(FK)" style="ellipse;whiteSpace=wrap;html=1;" parent="1" vertex="1">
                    <mxGeometry x="1556" y="1124" width="120" height="80" as="geometry"/>
                </mxCell>
                <mxCell id="356" style="edgeStyle=none;html=1;exitX=0.5;exitY=0;exitDx=0;exitDy=0;entryX=0.442;entryY=1;entryDx=0;entryDy=0;fontSize=14;entryPerimeter=0;" parent="1" source="355" target="106" edge="1">
                    <mxGeometry relative="1" as="geometry"/>
                </mxCell>
                <mxCell id="355" value="NOMBRE AGENT.&lt;br&gt;ENTREGADO&lt;br&gt;(FK)" style="ellipse;whiteSpace=wrap;html=1;" parent="1" vertex="1">
                    <mxGeometry x="1290" y="1161" width="120" height="80" as="geometry"/>
                </mxCell>
                <mxCell id="389" style="edgeStyle=none;html=1;exitX=1;exitY=1;exitDx=0;exitDy=0;entryX=0;entryY=0;entryDx=0;entryDy=0;" parent="1" source="359" target="388" edge="1">
                    <mxGeometry relative="1" as="geometry"/>
                </mxCell>
                <mxCell id="359" value="PERSONA" style="rounded=0;whiteSpace=wrap;html=1;fillColor=#0050ef;fontColor=#ffffff;strokeColor=#001DBC;" parent="1" vertex="1">
                    <mxGeometry x="480" y="310" width="120" height="60" as="geometry"/>
                </mxCell>
                <mxCell id="381" style="edgeStyle=none;html=1;entryX=0;entryY=0.5;entryDx=0;entryDy=0;" parent="1" source="361" target="359" edge="1">
                    <mxGeometry relative="1" as="geometry"/>
                </mxCell>
                <mxCell id="361" value="SEXO" style="ellipse;whiteSpace=wrap;html=1;" parent="1" vertex="1">
                    <mxGeometry x="310" y="340" width="120" height="80" as="geometry"/>
                </mxCell>
                <mxCell id="379" style="edgeStyle=none;html=1;" parent="1" source="363" target="359" edge="1">
                    <mxGeometry relative="1" as="geometry"/>
                </mxCell>
                <mxCell id="363" value="NOMBRE" style="ellipse;whiteSpace=wrap;html=1;" parent="1" vertex="1">
                    <mxGeometry x="480" y="199" width="120" height="80" as="geometry"/>
                </mxCell>
                <mxCell id="380" style="edgeStyle=none;html=1;" parent="1" source="378" target="359" edge="1">
                    <mxGeometry relative="1" as="geometry"/>
                </mxCell>
                <mxCell id="378" value="APELLIDO" style="ellipse;whiteSpace=wrap;html=1;" parent="1" vertex="1">
                    <mxGeometry x="610" y="210" width="120" height="80" as="geometry"/>
                </mxCell>
                <mxCell id="384" style="edgeStyle=none;html=1;exitX=0;exitY=0;exitDx=0;exitDy=0;entryX=0.644;entryY=1.011;entryDx=0;entryDy=0;entryPerimeter=0;" parent="1" source="382" target="359" edge="1">
                    <mxGeometry relative="1" as="geometry"/>
                </mxCell>
                <mxCell id="382" value="FECHA NACIMIENTO" style="ellipse;whiteSpace=wrap;html=1;" parent="1" vertex="1">
                    <mxGeometry x="560" y="415" width="120" height="80" as="geometry"/>
                </mxCell>
                <mxCell id="385" style="edgeStyle=none;html=1;exitX=1;exitY=0;exitDx=0;exitDy=0;" parent="1" source="383" target="359" edge="1">
                    <mxGeometry relative="1" as="geometry"/>
                </mxCell>
                <mxCell id="383" value="DIRECCIÓN" style="ellipse;whiteSpace=wrap;html=1;" parent="1" vertex="1">
                    <mxGeometry x="400" y="415" width="120" height="80" as="geometry"/>
                </mxCell>
                <mxCell id="387" style="edgeStyle=none;html=1;exitX=0;exitY=0;exitDx=0;exitDy=0;entryX=1;entryY=0.75;entryDx=0;entryDy=0;" parent="1" source="386" target="3" edge="1">
                    <mxGeometry relative="1" as="geometry"/>
                </mxCell>
                <mxCell id="386" value="FECHA INGRESO" style="ellipse;whiteSpace=wrap;html=1;" parent="1" vertex="1">
                    <mxGeometry x="1130" y="625" width="120" height="80" as="geometry"/>
                </mxCell>
                <mxCell id="390" style="edgeStyle=none;html=1;exitX=1;exitY=1;exitDx=0;exitDy=0;entryX=0;entryY=0;entryDx=0;entryDy=0;" parent="1" source="388" target="3" edge="1">
                    <mxGeometry relative="1" as="geometry"/>
                </mxCell>
                <mxCell id="388" value="TRABAJA" style="rhombus;whiteSpace=wrap;html=1;" parent="1" vertex="1">
                    <mxGeometry x="730" y="415" width="150" height="80" as="geometry"/>
                </mxCell>
                <mxCell id="392" value="1" style="text;html=1;strokeColor=none;fillColor=none;align=center;verticalAlign=middle;whiteSpace=wrap;rounded=0;strokeWidth=1;fontSize=14;fontStyle=1" parent="1" vertex="1">
                    <mxGeometry x="740" y="400" width="50" height="30" as="geometry"/>
                </mxCell>
                <mxCell id="393" value="1" style="text;html=1;strokeColor=none;fillColor=none;align=center;verticalAlign=middle;whiteSpace=wrap;rounded=0;strokeWidth=1;fontSize=14;fontStyle=1" parent="1" vertex="1">
                    <mxGeometry x="845" y="460" width="50" height="30" as="geometry"/>
                </mxCell>
                <mxCell id="396" style="edgeStyle=none;html=1;exitX=1;exitY=1;exitDx=0;exitDy=0;entryX=0.091;entryY=0.002;entryDx=0;entryDy=0;entryPerimeter=0;" parent="1" source="395" target="359" edge="1">
                    <mxGeometry relative="1" as="geometry"/>
                </mxCell>
                <mxCell id="395" value="CUIL&lt;br&gt;(PK)" style="ellipse;whiteSpace=wrap;html=1;" parent="1" vertex="1">
                    <mxGeometry x="330" y="230" width="120" height="80" as="geometry"/>
                </mxCell>
                <mxCell id="398" style="edgeStyle=none;html=1;entryX=1;entryY=0.5;entryDx=0;entryDy=0;" parent="1" source="397" target="359" edge="1">
                    <mxGeometry relative="1" as="geometry"/>
                </mxCell>
                <mxCell id="397" value="TEL CONTACTO" style="ellipse;whiteSpace=wrap;html=1;" parent="1" vertex="1">
                    <mxGeometry x="630" y="305" width="120" height="80" as="geometry"/>
                </mxCell>
                <mxCell id="401" style="edgeStyle=none;html=1;exitX=1;exitY=1;exitDx=0;exitDy=0;entryX=0.5;entryY=0;entryDx=0;entryDy=0;" parent="1" source="400" target="3" edge="1">
                    <mxGeometry relative="1" as="geometry"/>
                </mxCell>
                <mxCell id="400" value="CUIL&lt;br&gt;(FK)" style="ellipse;whiteSpace=wrap;html=1;" parent="1" vertex="1">
                    <mxGeometry x="890" y="420" width="120" height="80" as="geometry"/>
                </mxCell>
                <mxCell id="403" style="edgeStyle=none;html=1;exitX=1;exitY=1;exitDx=0;exitDy=0;entryX=0;entryY=0.25;entryDx=0;entryDy=0;" parent="1" source="402" target="193" edge="1">
                    <mxGeometry relative="1" as="geometry"/>
                </mxCell>
                <mxCell id="402" value="Fecha_ingreso" style="ellipse;whiteSpace=wrap;html=1;" parent="1" vertex="1">
                    <mxGeometry x="2830" y="293" width="120" height="80" as="geometry"/>
                </mxCell>
                <mxCell id="405" style="edgeStyle=none;html=1;exitX=1;exitY=1;exitDx=0;exitDy=0;entryX=0.25;entryY=0;entryDx=0;entryDy=0;" parent="1" source="404" target="193" edge="1">
                    <mxGeometry relative="1" as="geometry"/>
                </mxCell>
                <mxCell id="404" value="descripcion" style="ellipse;whiteSpace=wrap;html=1;" parent="1" vertex="1">
                    <mxGeometry x="2915" y="223" width="120" height="80" as="geometry"/>
                </mxCell>
                <mxCell id="425" style="edgeStyle=none;html=1;entryX=0;entryY=0.5;entryDx=0;entryDy=0;" parent="1" source="415" target="423" edge="1">
                    <mxGeometry relative="1" as="geometry"/>
                </mxCell>
                <mxCell id="415" value="PRODUCTO" style="rounded=0;whiteSpace=wrap;html=1;fillColor=#1ba1e2;fontColor=#ffffff;strokeColor=#006EAF;" parent="1" vertex="1">
                    <mxGeometry x="2441" y="682" width="140" height="60" as="geometry"/>
                </mxCell>
                <mxCell id="420" style="edgeStyle=none;html=1;exitX=0.5;exitY=1;exitDx=0;exitDy=0;entryX=0.25;entryY=0;entryDx=0;entryDy=0;" parent="1" source="416" target="415" edge="1">
                    <mxGeometry relative="1" as="geometry"/>
                </mxCell>
                <mxCell id="416" value="ID_PRODUCTO&lt;br&gt;(PK)" style="ellipse;whiteSpace=wrap;html=1;" parent="1" vertex="1">
                    <mxGeometry x="2360" y="545" width="120" height="80" as="geometry"/>
                </mxCell>
                <mxCell id="421" style="edgeStyle=none;html=1;entryX=0.5;entryY=1;entryDx=0;entryDy=0;" parent="1" source="417" target="415" edge="1">
                    <mxGeometry relative="1" as="geometry"/>
                </mxCell>
                <mxCell id="417" value="descripcion" style="ellipse;whiteSpace=wrap;html=1;" parent="1" vertex="1">
                    <mxGeometry x="2451" y="795.5" width="120" height="80" as="geometry"/>
                </mxCell>
                <mxCell id="423" value="SON" style="rhombus;whiteSpace=wrap;html=1;" parent="1" vertex="1">
                    <mxGeometry x="2630" y="672" width="150" height="80" as="geometry"/>
                </mxCell>
                <mxCell id="427" style="edgeStyle=none;html=1;exitX=0.5;exitY=1;exitDx=0;exitDy=0;" parent="1" source="426" target="415" edge="1">
                    <mxGeometry relative="1" as="geometry"/>
                </mxCell>
                <mxCell id="426" value="NOMBRE_PRODUCTO" style="ellipse;whiteSpace=wrap;html=1;" parent="1" vertex="1">
                    <mxGeometry x="2530" y="545" width="120" height="80" as="geometry"/>
                </mxCell>
            </root>
        </mxGraphModel>
    </diagram>
    <diagram name="Copy of Deposito" id="KsMLOgXqm_fkSk4eNZyw">
        <mxGraphModel dx="957" dy="615" grid="1" gridSize="10" guides="1" tooltips="1" connect="1" arrows="1" fold="1" page="1" pageScale="1" pageWidth="4681" pageHeight="3300" math="0" shadow="0">
            <root>
                <mxCell id="YuKRNsVVMTfTOoJq1-HF-0"/>
                <mxCell id="YuKRNsVVMTfTOoJq1-HF-1" parent="YuKRNsVVMTfTOoJq1-HF-0"/>
                <mxCell id="YuKRNsVVMTfTOoJq1-HF-2" style="edgeStyle=none;html=1;entryX=0;entryY=0.5;entryDx=0;entryDy=0;" edge="1" parent="YuKRNsVVMTfTOoJq1-HF-1" source="YuKRNsVVMTfTOoJq1-HF-3" target="YuKRNsVVMTfTOoJq1-HF-75">
                    <mxGeometry relative="1" as="geometry"/>
                </mxCell>
                <mxCell id="YuKRNsVVMTfTOoJq1-HF-3" value="AGENTE" style="rounded=0;whiteSpace=wrap;html=1;fillColor=#0050ef;fontColor=#ffffff;strokeColor=#001DBC;" vertex="1" parent="YuKRNsVVMTfTOoJq1-HF-1">
                    <mxGeometry x="960" y="550" width="120" height="60" as="geometry"/>
                </mxCell>
                <mxCell id="YuKRNsVVMTfTOoJq1-HF-4" style="edgeStyle=none;html=1;exitX=0.5;exitY=1;exitDx=0;exitDy=0;entryX=0.75;entryY=0;entryDx=0;entryDy=0;" edge="1" parent="YuKRNsVVMTfTOoJq1-HF-1" source="YuKRNsVVMTfTOoJq1-HF-5" target="YuKRNsVVMTfTOoJq1-HF-3">
                    <mxGeometry relative="1" as="geometry"/>
                </mxCell>
                <mxCell id="YuKRNsVVMTfTOoJq1-HF-5" value="NRO_LEG" style="ellipse;whiteSpace=wrap;html=1;" vertex="1" parent="YuKRNsVVMTfTOoJq1-HF-1">
                    <mxGeometry x="1020" y="420" width="120" height="80" as="geometry"/>
                </mxCell>
                <mxCell id="YuKRNsVVMTfTOoJq1-HF-6" style="edgeStyle=none;html=1;exitX=0;exitY=1;exitDx=0;exitDy=0;entryX=1;entryY=0;entryDx=0;entryDy=0;" edge="1" parent="YuKRNsVVMTfTOoJq1-HF-1" source="YuKRNsVVMTfTOoJq1-HF-7" target="YuKRNsVVMTfTOoJq1-HF-3">
                    <mxGeometry relative="1" as="geometry"/>
                </mxCell>
                <mxCell id="YuKRNsVVMTfTOoJq1-HF-7" value="Rol / Ocupación" style="ellipse;whiteSpace=wrap;html=1;" vertex="1" parent="YuKRNsVVMTfTOoJq1-HF-1">
                    <mxGeometry x="1150" y="435" width="120" height="80" as="geometry"/>
                </mxCell>
                <mxCell id="YuKRNsVVMTfTOoJq1-HF-8" style="edgeStyle=none;html=1;exitX=0.5;exitY=0;exitDx=0;exitDy=0;entryX=0.5;entryY=1;entryDx=0;entryDy=0;" edge="1" parent="YuKRNsVVMTfTOoJq1-HF-1" source="YuKRNsVVMTfTOoJq1-HF-9" target="YuKRNsVVMTfTOoJq1-HF-3">
                    <mxGeometry relative="1" as="geometry"/>
                </mxCell>
                <mxCell id="YuKRNsVVMTfTOoJq1-HF-9" value="Sector de trabajo" style="ellipse;whiteSpace=wrap;html=1;" vertex="1" parent="YuKRNsVVMTfTOoJq1-HF-1">
                    <mxGeometry x="940" y="685" width="120" height="80" as="geometry"/>
                </mxCell>
                <mxCell id="YuKRNsVVMTfTOoJq1-HF-10" style="edgeStyle=none;html=1;entryX=0;entryY=0.5;entryDx=0;entryDy=0;" edge="1" parent="YuKRNsVVMTfTOoJq1-HF-1" source="YuKRNsVVMTfTOoJq1-HF-11" target="YuKRNsVVMTfTOoJq1-HF-77">
                    <mxGeometry relative="1" as="geometry"/>
                </mxCell>
                <mxCell id="YuKRNsVVMTfTOoJq1-HF-11" value="PEDIDO" style="rounded=0;whiteSpace=wrap;html=1;" vertex="1" parent="YuKRNsVVMTfTOoJq1-HF-1">
                    <mxGeometry x="1478" y="550" width="120" height="60" as="geometry"/>
                </mxCell>
                <mxCell id="YuKRNsVVMTfTOoJq1-HF-12" style="edgeStyle=none;html=1;exitX=1;exitY=1;exitDx=0;exitDy=0;entryX=0.25;entryY=0;entryDx=0;entryDy=0;" edge="1" parent="YuKRNsVVMTfTOoJq1-HF-1" source="YuKRNsVVMTfTOoJq1-HF-13" target="YuKRNsVVMTfTOoJq1-HF-11">
                    <mxGeometry relative="1" as="geometry"/>
                </mxCell>
                <mxCell id="YuKRNsVVMTfTOoJq1-HF-13" value="NRO_PEDIDO" style="ellipse;whiteSpace=wrap;html=1;" vertex="1" parent="YuKRNsVVMTfTOoJq1-HF-1">
                    <mxGeometry x="1358" y="445" width="120" height="80" as="geometry"/>
                </mxCell>
                <mxCell id="YuKRNsVVMTfTOoJq1-HF-14" style="edgeStyle=none;html=1;exitX=0.5;exitY=1;exitDx=0;exitDy=0;entryX=0.5;entryY=0;entryDx=0;entryDy=0;" edge="1" parent="YuKRNsVVMTfTOoJq1-HF-1" source="YuKRNsVVMTfTOoJq1-HF-15" target="YuKRNsVVMTfTOoJq1-HF-11">
                    <mxGeometry relative="1" as="geometry"/>
                </mxCell>
                <mxCell id="YuKRNsVVMTfTOoJq1-HF-15" value="NRO_LEG AGENTE" style="ellipse;whiteSpace=wrap;html=1;" vertex="1" parent="YuKRNsVVMTfTOoJq1-HF-1">
                    <mxGeometry x="1478" y="380" width="120" height="80" as="geometry"/>
                </mxCell>
                <mxCell id="YuKRNsVVMTfTOoJq1-HF-16" style="edgeStyle=none;html=1;exitX=0;exitY=1;exitDx=0;exitDy=0;" edge="1" parent="YuKRNsVVMTfTOoJq1-HF-1" source="YuKRNsVVMTfTOoJq1-HF-17" target="YuKRNsVVMTfTOoJq1-HF-11">
                    <mxGeometry relative="1" as="geometry"/>
                </mxCell>
                <mxCell id="YuKRNsVVMTfTOoJq1-HF-17" value="Nombre y Apellido" style="ellipse;whiteSpace=wrap;html=1;" vertex="1" parent="YuKRNsVVMTfTOoJq1-HF-1">
                    <mxGeometry x="1598" y="445" width="120" height="80" as="geometry"/>
                </mxCell>
                <mxCell id="YuKRNsVVMTfTOoJq1-HF-18" style="edgeStyle=none;html=1;exitX=0;exitY=0;exitDx=0;exitDy=0;entryX=0.75;entryY=1;entryDx=0;entryDy=0;" edge="1" parent="YuKRNsVVMTfTOoJq1-HF-1" source="YuKRNsVVMTfTOoJq1-HF-19" target="YuKRNsVVMTfTOoJq1-HF-11">
                    <mxGeometry relative="1" as="geometry"/>
                </mxCell>
                <mxCell id="YuKRNsVVMTfTOoJq1-HF-19" value="Fecha de solicitud" style="ellipse;whiteSpace=wrap;html=1;" vertex="1" parent="YuKRNsVVMTfTOoJq1-HF-1">
                    <mxGeometry x="1599" y="625" width="120" height="80" as="geometry"/>
                </mxCell>
                <mxCell id="YuKRNsVVMTfTOoJq1-HF-20" style="edgeStyle=none;html=1;entryX=1;entryY=0.5;entryDx=0;entryDy=0;" edge="1" parent="YuKRNsVVMTfTOoJq1-HF-1" source="YuKRNsVVMTfTOoJq1-HF-22" target="YuKRNsVVMTfTOoJq1-HF-81">
                    <mxGeometry relative="1" as="geometry"/>
                </mxCell>
                <mxCell id="YuKRNsVVMTfTOoJq1-HF-21" style="edgeStyle=none;html=1;exitX=1;exitY=0;exitDx=0;exitDy=0;entryX=0;entryY=1;entryDx=0;entryDy=0;" edge="1" parent="YuKRNsVVMTfTOoJq1-HF-1" source="YuKRNsVVMTfTOoJq1-HF-22" target="YuKRNsVVMTfTOoJq1-HF-172">
                    <mxGeometry relative="1" as="geometry">
                        <mxPoint x="2310" y="730" as="targetPoint"/>
                        <Array as="points">
                            <mxPoint x="2210" y="890"/>
                        </Array>
                    </mxGeometry>
                </mxCell>
                <mxCell id="YuKRNsVVMTfTOoJq1-HF-22" value="MATERIALES STOCK" style="rounded=0;whiteSpace=wrap;html=1;fillColor=#008a00;fontColor=#ffffff;strokeColor=#005700;" vertex="1" parent="YuKRNsVVMTfTOoJq1-HF-1">
                    <mxGeometry x="1965" y="984" width="140" height="60" as="geometry"/>
                </mxCell>
                <mxCell id="YuKRNsVVMTfTOoJq1-HF-23" style="edgeStyle=none;html=1;entryX=0.25;entryY=0;entryDx=0;entryDy=0;" edge="1" parent="YuKRNsVVMTfTOoJq1-HF-1" source="YuKRNsVVMTfTOoJq1-HF-24" target="YuKRNsVVMTfTOoJq1-HF-22">
                    <mxGeometry relative="1" as="geometry"/>
                </mxCell>
                <mxCell id="YuKRNsVVMTfTOoJq1-HF-24" value="NRO_ITEM" style="ellipse;whiteSpace=wrap;html=1;" vertex="1" parent="YuKRNsVVMTfTOoJq1-HF-1">
                    <mxGeometry x="1900" y="864" width="120" height="80" as="geometry"/>
                </mxCell>
                <mxCell id="YuKRNsVVMTfTOoJq1-HF-25" style="edgeStyle=none;html=1;exitX=0.251;exitY=0.925;exitDx=0;exitDy=0;entryX=0.75;entryY=0;entryDx=0;entryDy=0;exitPerimeter=0;" edge="1" parent="YuKRNsVVMTfTOoJq1-HF-1" source="YuKRNsVVMTfTOoJq1-HF-26" target="YuKRNsVVMTfTOoJq1-HF-22">
                    <mxGeometry relative="1" as="geometry"/>
                </mxCell>
                <mxCell id="YuKRNsVVMTfTOoJq1-HF-26" value="ID_PRODUCTO" style="ellipse;whiteSpace=wrap;html=1;" vertex="1" parent="YuKRNsVVMTfTOoJq1-HF-1">
                    <mxGeometry x="2042" y="855" width="120" height="80" as="geometry"/>
                </mxCell>
                <mxCell id="YuKRNsVVMTfTOoJq1-HF-27" style="edgeStyle=none;html=1;exitX=0;exitY=0;exitDx=0;exitDy=0;entryX=1;entryY=0.75;entryDx=0;entryDy=0;" edge="1" parent="YuKRNsVVMTfTOoJq1-HF-1" source="YuKRNsVVMTfTOoJq1-HF-28" target="YuKRNsVVMTfTOoJq1-HF-22">
                    <mxGeometry relative="1" as="geometry"/>
                </mxCell>
                <mxCell id="YuKRNsVVMTfTOoJq1-HF-28" value="TIPO / CLASIFIC." style="ellipse;whiteSpace=wrap;html=1;" vertex="1" parent="YuKRNsVVMTfTOoJq1-HF-1">
                    <mxGeometry x="2150" y="1044" width="120" height="80" as="geometry"/>
                </mxCell>
                <mxCell id="YuKRNsVVMTfTOoJq1-HF-29" style="edgeStyle=none;html=1;exitX=0.5;exitY=0;exitDx=0;exitDy=0;entryX=0.75;entryY=1;entryDx=0;entryDy=0;" edge="1" parent="YuKRNsVVMTfTOoJq1-HF-1" source="YuKRNsVVMTfTOoJq1-HF-30" target="YuKRNsVVMTfTOoJq1-HF-22">
                    <mxGeometry relative="1" as="geometry"/>
                </mxCell>
                <mxCell id="YuKRNsVVMTfTOoJq1-HF-30" value="DESCRIPCIÓN" style="ellipse;whiteSpace=wrap;html=1;" vertex="1" parent="YuKRNsVVMTfTOoJq1-HF-1">
                    <mxGeometry x="2030" y="1104" width="120" height="80" as="geometry"/>
                </mxCell>
                <mxCell id="YuKRNsVVMTfTOoJq1-HF-31" style="edgeStyle=none;html=1;exitX=0.5;exitY=0;exitDx=0;exitDy=0;entryX=0.25;entryY=1;entryDx=0;entryDy=0;" edge="1" parent="YuKRNsVVMTfTOoJq1-HF-1" source="YuKRNsVVMTfTOoJq1-HF-32" target="YuKRNsVVMTfTOoJq1-HF-22">
                    <mxGeometry relative="1" as="geometry"/>
                </mxCell>
                <mxCell id="YuKRNsVVMTfTOoJq1-HF-32" value="FABRICANTE" style="ellipse;whiteSpace=wrap;html=1;" vertex="1" parent="YuKRNsVVMTfTOoJq1-HF-1">
                    <mxGeometry x="1900" y="1104" width="120" height="80" as="geometry"/>
                </mxCell>
                <mxCell id="YuKRNsVVMTfTOoJq1-HF-33" style="edgeStyle=none;html=1;exitX=1;exitY=0;exitDx=0;exitDy=0;entryX=0;entryY=0.75;entryDx=0;entryDy=0;" edge="1" parent="YuKRNsVVMTfTOoJq1-HF-1" source="YuKRNsVVMTfTOoJq1-HF-34" target="YuKRNsVVMTfTOoJq1-HF-22">
                    <mxGeometry relative="1" as="geometry"/>
                </mxCell>
                <mxCell id="YuKRNsVVMTfTOoJq1-HF-34" value="ID_COMPRA" style="ellipse;whiteSpace=wrap;html=1;" vertex="1" parent="YuKRNsVVMTfTOoJq1-HF-1">
                    <mxGeometry x="1800" y="1044" width="120" height="80" as="geometry"/>
                </mxCell>
                <mxCell id="YuKRNsVVMTfTOoJq1-HF-35" style="edgeStyle=none;html=1;exitX=1;exitY=1;exitDx=0;exitDy=0;entryX=0;entryY=0.25;entryDx=0;entryDy=0;" edge="1" parent="YuKRNsVVMTfTOoJq1-HF-1" source="YuKRNsVVMTfTOoJq1-HF-36" target="YuKRNsVVMTfTOoJq1-HF-22">
                    <mxGeometry relative="1" as="geometry"/>
                </mxCell>
                <mxCell id="YuKRNsVVMTfTOoJq1-HF-36" value="LOTE / UBICACIÓN" style="ellipse;whiteSpace=wrap;html=1;" vertex="1" parent="YuKRNsVVMTfTOoJq1-HF-1">
                    <mxGeometry x="1780" y="899" width="120" height="80" as="geometry"/>
                </mxCell>
                <mxCell id="YuKRNsVVMTfTOoJq1-HF-37" style="edgeStyle=none;html=1;exitX=0;exitY=0.5;exitDx=0;exitDy=0;entryX=1;entryY=0.25;entryDx=0;entryDy=0;" edge="1" parent="YuKRNsVVMTfTOoJq1-HF-1" source="YuKRNsVVMTfTOoJq1-HF-38" target="YuKRNsVVMTfTOoJq1-HF-22">
                    <mxGeometry relative="1" as="geometry"/>
                </mxCell>
                <mxCell id="YuKRNsVVMTfTOoJq1-HF-38" value="STOCK_DISPONIB." style="ellipse;whiteSpace=wrap;html=1;" vertex="1" parent="YuKRNsVVMTfTOoJq1-HF-1">
                    <mxGeometry x="2160" y="944" width="120" height="80" as="geometry"/>
                </mxCell>
                <mxCell id="YuKRNsVVMTfTOoJq1-HF-39" style="edgeStyle=none;html=1;exitX=0;exitY=0;exitDx=0;exitDy=0;entryX=1;entryY=1;entryDx=0;entryDy=0;" edge="1" parent="YuKRNsVVMTfTOoJq1-HF-1" source="YuKRNsVVMTfTOoJq1-HF-40" target="YuKRNsVVMTfTOoJq1-HF-83">
                    <mxGeometry relative="1" as="geometry"/>
                </mxCell>
                <mxCell id="YuKRNsVVMTfTOoJq1-HF-40" value="MOVIMIENTO" style="rounded=0;whiteSpace=wrap;html=1;" vertex="1" parent="YuKRNsVVMTfTOoJq1-HF-1">
                    <mxGeometry x="1339" y="984" width="120" height="60" as="geometry"/>
                </mxCell>
                <mxCell id="YuKRNsVVMTfTOoJq1-HF-41" style="edgeStyle=none;html=1;exitX=0.5;exitY=1;exitDx=0;exitDy=0;entryX=0.75;entryY=0;entryDx=0;entryDy=0;" edge="1" parent="YuKRNsVVMTfTOoJq1-HF-1" source="YuKRNsVVMTfTOoJq1-HF-42" target="YuKRNsVVMTfTOoJq1-HF-40">
                    <mxGeometry relative="1" as="geometry"/>
                </mxCell>
                <mxCell id="YuKRNsVVMTfTOoJq1-HF-42" value="ID_MOVIMIENTO" style="ellipse;whiteSpace=wrap;html=1;" vertex="1" parent="YuKRNsVVMTfTOoJq1-HF-1">
                    <mxGeometry x="1390" y="855" width="120" height="80" as="geometry"/>
                </mxCell>
                <mxCell id="YuKRNsVVMTfTOoJq1-HF-43" style="edgeStyle=none;html=1;exitX=1;exitY=1;exitDx=0;exitDy=0;entryX=0.5;entryY=0;entryDx=0;entryDy=0;" edge="1" parent="YuKRNsVVMTfTOoJq1-HF-1" source="YuKRNsVVMTfTOoJq1-HF-44" target="YuKRNsVVMTfTOoJq1-HF-40">
                    <mxGeometry relative="1" as="geometry"/>
                </mxCell>
                <mxCell id="YuKRNsVVMTfTOoJq1-HF-44" value="NRO_PEDIDO" style="ellipse;whiteSpace=wrap;html=1;" vertex="1" parent="YuKRNsVVMTfTOoJq1-HF-1">
                    <mxGeometry x="1265" y="874" width="120" height="80" as="geometry"/>
                </mxCell>
                <mxCell id="YuKRNsVVMTfTOoJq1-HF-45" style="edgeStyle=none;html=1;exitX=1;exitY=0.5;exitDx=0;exitDy=0;entryX=0;entryY=0.5;entryDx=0;entryDy=0;" edge="1" parent="YuKRNsVVMTfTOoJq1-HF-1" source="YuKRNsVVMTfTOoJq1-HF-46" target="YuKRNsVVMTfTOoJq1-HF-40">
                    <mxGeometry relative="1" as="geometry"/>
                </mxCell>
                <mxCell id="YuKRNsVVMTfTOoJq1-HF-46" value="TIPO MOVIMIENTO" style="ellipse;whiteSpace=wrap;html=1;" vertex="1" parent="YuKRNsVVMTfTOoJq1-HF-1">
                    <mxGeometry x="1170" y="954" width="120" height="80" as="geometry"/>
                </mxCell>
                <mxCell id="YuKRNsVVMTfTOoJq1-HF-47" style="edgeStyle=none;html=1;exitX=0.963;exitY=0.288;exitDx=0;exitDy=0;entryX=0.25;entryY=1;entryDx=0;entryDy=0;exitPerimeter=0;" edge="1" parent="YuKRNsVVMTfTOoJq1-HF-1" source="YuKRNsVVMTfTOoJq1-HF-48" target="YuKRNsVVMTfTOoJq1-HF-40">
                    <mxGeometry relative="1" as="geometry"/>
                </mxCell>
                <mxCell id="YuKRNsVVMTfTOoJq1-HF-48" value="FECHA_EJECUCIÓN" style="ellipse;whiteSpace=wrap;html=1;" vertex="1" parent="YuKRNsVVMTfTOoJq1-HF-1">
                    <mxGeometry x="1190" y="1044" width="120" height="80" as="geometry"/>
                </mxCell>
                <mxCell id="YuKRNsVVMTfTOoJq1-HF-49" style="edgeStyle=none;html=1;exitX=1;exitY=0;exitDx=0;exitDy=0;entryX=0.25;entryY=1;entryDx=0;entryDy=0;" edge="1" parent="YuKRNsVVMTfTOoJq1-HF-1" source="YuKRNsVVMTfTOoJq1-HF-50" target="YuKRNsVVMTfTOoJq1-HF-11">
                    <mxGeometry relative="1" as="geometry"/>
                </mxCell>
                <mxCell id="YuKRNsVVMTfTOoJq1-HF-50" value="Tipo de pedido&lt;br&gt;Ingreso / Egreso" style="ellipse;whiteSpace=wrap;html=1;" vertex="1" parent="YuKRNsVVMTfTOoJq1-HF-1">
                    <mxGeometry x="1358" y="620" width="120" height="80" as="geometry"/>
                </mxCell>
                <mxCell id="YuKRNsVVMTfTOoJq1-HF-51" style="edgeStyle=none;html=1;" edge="1" parent="YuKRNsVVMTfTOoJq1-HF-1" source="YuKRNsVVMTfTOoJq1-HF-52" target="YuKRNsVVMTfTOoJq1-HF-40">
                    <mxGeometry relative="1" as="geometry"/>
                </mxCell>
                <mxCell id="YuKRNsVVMTfTOoJq1-HF-52" value="NRO LEG. AGENT.&lt;br&gt;ENTREGADO" style="ellipse;whiteSpace=wrap;html=1;" vertex="1" parent="YuKRNsVVMTfTOoJq1-HF-1">
                    <mxGeometry x="1430" y="1150" width="120" height="80" as="geometry"/>
                </mxCell>
                <mxCell id="YuKRNsVVMTfTOoJq1-HF-53" style="edgeStyle=none;html=1;exitX=0;exitY=0;exitDx=0;exitDy=0;entryX=1;entryY=0.75;entryDx=0;entryDy=0;" edge="1" parent="YuKRNsVVMTfTOoJq1-HF-1" source="YuKRNsVVMTfTOoJq1-HF-54" target="YuKRNsVVMTfTOoJq1-HF-40">
                    <mxGeometry relative="1" as="geometry"/>
                </mxCell>
                <mxCell id="YuKRNsVVMTfTOoJq1-HF-54" value="NRO LEG SUPER." style="ellipse;whiteSpace=wrap;html=1;" vertex="1" parent="YuKRNsVVMTfTOoJq1-HF-1">
                    <mxGeometry x="1520" y="1034" width="120" height="80" as="geometry"/>
                </mxCell>
                <mxCell id="YuKRNsVVMTfTOoJq1-HF-55" style="edgeStyle=none;html=1;exitX=0;exitY=1;exitDx=0;exitDy=0;entryX=1;entryY=0.25;entryDx=0;entryDy=0;" edge="1" parent="YuKRNsVVMTfTOoJq1-HF-1" source="YuKRNsVVMTfTOoJq1-HF-56" target="YuKRNsVVMTfTOoJq1-HF-40">
                    <mxGeometry relative="1" as="geometry"/>
                </mxCell>
                <mxCell id="YuKRNsVVMTfTOoJq1-HF-56" value="CANT. PRODUCTO" style="ellipse;whiteSpace=wrap;html=1;" vertex="1" parent="YuKRNsVVMTfTOoJq1-HF-1">
                    <mxGeometry x="1488" y="914" width="120" height="80" as="geometry"/>
                </mxCell>
                <mxCell id="YuKRNsVVMTfTOoJq1-HF-57" style="edgeStyle=none;html=1;exitX=1;exitY=0;exitDx=0;exitDy=0;entryX=0.25;entryY=1;entryDx=0;entryDy=0;" edge="1" parent="YuKRNsVVMTfTOoJq1-HF-1" source="YuKRNsVVMTfTOoJq1-HF-58" target="YuKRNsVVMTfTOoJq1-HF-3">
                    <mxGeometry relative="1" as="geometry"/>
                </mxCell>
                <mxCell id="YuKRNsVVMTfTOoJq1-HF-58" value="Tel. Interno" style="ellipse;whiteSpace=wrap;html=1;" vertex="1" parent="YuKRNsVVMTfTOoJq1-HF-1">
                    <mxGeometry x="820" y="645" width="120" height="80" as="geometry"/>
                </mxCell>
                <mxCell id="YuKRNsVVMTfTOoJq1-HF-59" style="edgeStyle=none;html=1;exitX=1;exitY=0.5;exitDx=0;exitDy=0;entryX=0;entryY=0.5;entryDx=0;entryDy=0;" edge="1" parent="YuKRNsVVMTfTOoJq1-HF-1" source="YuKRNsVVMTfTOoJq1-HF-60" target="YuKRNsVVMTfTOoJq1-HF-3">
                    <mxGeometry relative="1" as="geometry"/>
                </mxCell>
                <mxCell id="YuKRNsVVMTfTOoJq1-HF-60" value="email" style="ellipse;whiteSpace=wrap;html=1;" vertex="1" parent="YuKRNsVVMTfTOoJq1-HF-1">
                    <mxGeometry x="810" y="540" width="120" height="80" as="geometry"/>
                </mxCell>
                <mxCell id="YuKRNsVVMTfTOoJq1-HF-61" style="edgeStyle=none;html=1;entryX=0.5;entryY=0;entryDx=0;entryDy=0;" edge="1" parent="YuKRNsVVMTfTOoJq1-HF-1" source="YuKRNsVVMTfTOoJq1-HF-63" target="YuKRNsVVMTfTOoJq1-HF-79">
                    <mxGeometry relative="1" as="geometry"/>
                </mxCell>
                <mxCell id="YuKRNsVVMTfTOoJq1-HF-62" style="edgeStyle=none;html=1;exitX=1;exitY=1;exitDx=0;exitDy=0;fontSize=14;" edge="1" parent="YuKRNsVVMTfTOoJq1-HF-1" source="YuKRNsVVMTfTOoJq1-HF-63" target="YuKRNsVVMTfTOoJq1-HF-172">
                    <mxGeometry relative="1" as="geometry"/>
                </mxCell>
                <mxCell id="YuKRNsVVMTfTOoJq1-HF-63" value="LISTA_MATERIALES" style="rounded=0;whiteSpace=wrap;html=1;" vertex="1" parent="YuKRNsVVMTfTOoJq1-HF-1">
                    <mxGeometry x="1965" y="551" width="140" height="60" as="geometry"/>
                </mxCell>
                <mxCell id="YuKRNsVVMTfTOoJq1-HF-64" style="edgeStyle=none;html=1;exitX=1;exitY=0;exitDx=0;exitDy=0;entryX=0.393;entryY=1;entryDx=0;entryDy=0;entryPerimeter=0;" edge="1" parent="YuKRNsVVMTfTOoJq1-HF-1" source="YuKRNsVVMTfTOoJq1-HF-65" target="YuKRNsVVMTfTOoJq1-HF-63">
                    <mxGeometry relative="1" as="geometry"/>
                </mxCell>
                <mxCell id="YuKRNsVVMTfTOoJq1-HF-65" value="NRO ITEM" style="ellipse;whiteSpace=wrap;html=1;" vertex="1" parent="YuKRNsVVMTfTOoJq1-HF-1">
                    <mxGeometry x="1900" y="631" width="120" height="80" as="geometry"/>
                </mxCell>
                <mxCell id="YuKRNsVVMTfTOoJq1-HF-66" style="edgeStyle=none;html=1;exitX=0;exitY=0;exitDx=0;exitDy=0;" edge="1" parent="YuKRNsVVMTfTOoJq1-HF-1" source="YuKRNsVVMTfTOoJq1-HF-67" target="YuKRNsVVMTfTOoJq1-HF-63">
                    <mxGeometry relative="1" as="geometry"/>
                </mxCell>
                <mxCell id="YuKRNsVVMTfTOoJq1-HF-67" value="ID_PRODUCTO" style="ellipse;whiteSpace=wrap;html=1;" vertex="1" parent="YuKRNsVVMTfTOoJq1-HF-1">
                    <mxGeometry x="2042" y="631" width="120" height="80" as="geometry"/>
                </mxCell>
                <mxCell id="YuKRNsVVMTfTOoJq1-HF-68" style="edgeStyle=none;html=1;exitX=0;exitY=0.5;exitDx=0;exitDy=0;entryX=1;entryY=0.5;entryDx=0;entryDy=0;" edge="1" parent="YuKRNsVVMTfTOoJq1-HF-1" source="YuKRNsVVMTfTOoJq1-HF-69" target="YuKRNsVVMTfTOoJq1-HF-63">
                    <mxGeometry relative="1" as="geometry"/>
                </mxCell>
                <mxCell id="YuKRNsVVMTfTOoJq1-HF-69" value="descripción_produc" style="ellipse;whiteSpace=wrap;html=1;" vertex="1" parent="YuKRNsVVMTfTOoJq1-HF-1">
                    <mxGeometry x="2140" y="541" width="120" height="80" as="geometry"/>
                </mxCell>
                <mxCell id="YuKRNsVVMTfTOoJq1-HF-70" style="edgeStyle=none;html=1;exitX=0.5;exitY=1;exitDx=0;exitDy=0;entryX=0.5;entryY=0;entryDx=0;entryDy=0;" edge="1" parent="YuKRNsVVMTfTOoJq1-HF-1" source="YuKRNsVVMTfTOoJq1-HF-71" target="YuKRNsVVMTfTOoJq1-HF-63">
                    <mxGeometry relative="1" as="geometry"/>
                </mxCell>
                <mxCell id="YuKRNsVVMTfTOoJq1-HF-71" value="cantidad" style="ellipse;whiteSpace=wrap;html=1;" vertex="1" parent="YuKRNsVVMTfTOoJq1-HF-1">
                    <mxGeometry x="1950" y="430" width="120" height="80" as="geometry"/>
                </mxCell>
                <mxCell id="YuKRNsVVMTfTOoJq1-HF-72" style="edgeStyle=none;html=1;exitX=0;exitY=1;exitDx=0;exitDy=0;entryX=0.75;entryY=0;entryDx=0;entryDy=0;" edge="1" parent="YuKRNsVVMTfTOoJq1-HF-1" source="YuKRNsVVMTfTOoJq1-HF-73" target="YuKRNsVVMTfTOoJq1-HF-63">
                    <mxGeometry relative="1" as="geometry"/>
                </mxCell>
                <mxCell id="YuKRNsVVMTfTOoJq1-HF-73" value="utilizado_en" style="ellipse;whiteSpace=wrap;html=1;" vertex="1" parent="YuKRNsVVMTfTOoJq1-HF-1">
                    <mxGeometry x="2080" y="431" width="120" height="80" as="geometry"/>
                </mxCell>
                <mxCell id="YuKRNsVVMTfTOoJq1-HF-74" style="edgeStyle=none;html=1;entryX=0;entryY=0.5;entryDx=0;entryDy=0;" edge="1" parent="YuKRNsVVMTfTOoJq1-HF-1" source="YuKRNsVVMTfTOoJq1-HF-75" target="YuKRNsVVMTfTOoJq1-HF-11">
                    <mxGeometry relative="1" as="geometry"/>
                </mxCell>
                <mxCell id="YuKRNsVVMTfTOoJq1-HF-75" value="SOLICITA" style="rhombus;whiteSpace=wrap;html=1;" vertex="1" parent="YuKRNsVVMTfTOoJq1-HF-1">
                    <mxGeometry x="1226" y="540" width="150" height="80" as="geometry"/>
                </mxCell>
                <mxCell id="YuKRNsVVMTfTOoJq1-HF-76" style="edgeStyle=none;html=1;exitX=1;exitY=0.5;exitDx=0;exitDy=0;entryX=0;entryY=0.5;entryDx=0;entryDy=0;" edge="1" parent="YuKRNsVVMTfTOoJq1-HF-1" source="YuKRNsVVMTfTOoJq1-HF-77" target="YuKRNsVVMTfTOoJq1-HF-63">
                    <mxGeometry relative="1" as="geometry"/>
                </mxCell>
                <mxCell id="YuKRNsVVMTfTOoJq1-HF-77" value="ASOCIADO" style="rhombus;whiteSpace=wrap;html=1;" vertex="1" parent="YuKRNsVVMTfTOoJq1-HF-1">
                    <mxGeometry x="1719" y="541" width="150" height="80" as="geometry"/>
                </mxCell>
                <mxCell id="YuKRNsVVMTfTOoJq1-HF-78" style="edgeStyle=none;html=1;exitX=0.5;exitY=1;exitDx=0;exitDy=0;entryX=0.5;entryY=0;entryDx=0;entryDy=0;" edge="1" parent="YuKRNsVVMTfTOoJq1-HF-1" source="YuKRNsVVMTfTOoJq1-HF-79" target="YuKRNsVVMTfTOoJq1-HF-22">
                    <mxGeometry relative="1" as="geometry">
                        <mxPoint x="2035" y="869" as="sourcePoint"/>
                    </mxGeometry>
                </mxCell>
                <mxCell id="YuKRNsVVMTfTOoJq1-HF-79" value="CONSULTA" style="rhombus;whiteSpace=wrap;html=1;" vertex="1" parent="YuKRNsVVMTfTOoJq1-HF-1">
                    <mxGeometry x="1960" y="735" width="150" height="80" as="geometry"/>
                </mxCell>
                <mxCell id="YuKRNsVVMTfTOoJq1-HF-80" style="edgeStyle=none;html=1;entryX=1;entryY=0.5;entryDx=0;entryDy=0;" edge="1" parent="YuKRNsVVMTfTOoJq1-HF-1" source="YuKRNsVVMTfTOoJq1-HF-81" target="YuKRNsVVMTfTOoJq1-HF-40">
                    <mxGeometry relative="1" as="geometry"/>
                </mxCell>
                <mxCell id="YuKRNsVVMTfTOoJq1-HF-81" value="MUEVE" style="rhombus;whiteSpace=wrap;html=1;" vertex="1" parent="YuKRNsVVMTfTOoJq1-HF-1">
                    <mxGeometry x="1631" y="974" width="150" height="80" as="geometry"/>
                </mxCell>
                <mxCell id="YuKRNsVVMTfTOoJq1-HF-82" style="edgeStyle=none;html=1;exitX=0.5;exitY=0;exitDx=0;exitDy=0;" edge="1" parent="YuKRNsVVMTfTOoJq1-HF-1" source="YuKRNsVVMTfTOoJq1-HF-83" target="YuKRNsVVMTfTOoJq1-HF-3">
                    <mxGeometry relative="1" as="geometry"/>
                </mxCell>
                <mxCell id="YuKRNsVVMTfTOoJq1-HF-83" value="ENTREGA" style="rhombus;whiteSpace=wrap;html=1;" vertex="1" parent="YuKRNsVVMTfTOoJq1-HF-1">
                    <mxGeometry x="1060" y="845" width="150" height="80" as="geometry"/>
                </mxCell>
                <mxCell id="YuKRNsVVMTfTOoJq1-HF-84" value="RESISTENCIA" style="rounded=0;whiteSpace=wrap;html=1;fillColor=#1ba1e2;fontColor=#ffffff;strokeColor=#006EAF;" vertex="1" parent="YuKRNsVVMTfTOoJq1-HF-1">
                    <mxGeometry x="2615" y="385" width="140" height="60" as="geometry"/>
                </mxCell>
                <mxCell id="YuKRNsVVMTfTOoJq1-HF-85" style="edgeStyle=none;html=1;exitX=1;exitY=1;exitDx=0;exitDy=0;entryX=0.25;entryY=0;entryDx=0;entryDy=0;" edge="1" parent="YuKRNsVVMTfTOoJq1-HF-1" source="YuKRNsVVMTfTOoJq1-HF-86" target="YuKRNsVVMTfTOoJq1-HF-84">
                    <mxGeometry relative="1" as="geometry"/>
                </mxCell>
                <mxCell id="YuKRNsVVMTfTOoJq1-HF-86" value="ID_PRODUCTO" style="ellipse;whiteSpace=wrap;html=1;" vertex="1" parent="YuKRNsVVMTfTOoJq1-HF-1">
                    <mxGeometry x="2510" y="260" width="120" height="80" as="geometry"/>
                </mxCell>
                <mxCell id="YuKRNsVVMTfTOoJq1-HF-87" style="edgeStyle=none;html=1;exitX=0;exitY=0.5;exitDx=0;exitDy=0;" edge="1" parent="YuKRNsVVMTfTOoJq1-HF-1" source="YuKRNsVVMTfTOoJq1-HF-88">
                    <mxGeometry relative="1" as="geometry">
                        <mxPoint x="2750" y="415" as="targetPoint"/>
                    </mxGeometry>
                </mxCell>
                <mxCell id="YuKRNsVVMTfTOoJq1-HF-88" value="TOLERANCIA" style="ellipse;whiteSpace=wrap;html=1;" vertex="1" parent="YuKRNsVVMTfTOoJq1-HF-1">
                    <mxGeometry x="2820" y="375" width="120" height="80" as="geometry"/>
                </mxCell>
                <mxCell id="YuKRNsVVMTfTOoJq1-HF-89" style="edgeStyle=none;html=1;exitX=0.5;exitY=0;exitDx=0;exitDy=0;entryX=0.5;entryY=1;entryDx=0;entryDy=0;" edge="1" parent="YuKRNsVVMTfTOoJq1-HF-1" source="YuKRNsVVMTfTOoJq1-HF-90" target="YuKRNsVVMTfTOoJq1-HF-84">
                    <mxGeometry relative="1" as="geometry"/>
                </mxCell>
                <mxCell id="YuKRNsVVMTfTOoJq1-HF-90" value="HOJA DE DATOS" style="ellipse;whiteSpace=wrap;html=1;" vertex="1" parent="YuKRNsVVMTfTOoJq1-HF-1">
                    <mxGeometry x="2625" y="560" width="120" height="80" as="geometry"/>
                </mxCell>
                <mxCell id="YuKRNsVVMTfTOoJq1-HF-91" style="edgeStyle=none;html=1;exitX=1;exitY=0;exitDx=0;exitDy=0;entryX=0.25;entryY=1;entryDx=0;entryDy=0;" edge="1" parent="YuKRNsVVMTfTOoJq1-HF-1" source="YuKRNsVVMTfTOoJq1-HF-92" target="YuKRNsVVMTfTOoJq1-HF-84">
                    <mxGeometry relative="1" as="geometry"/>
                </mxCell>
                <mxCell id="YuKRNsVVMTfTOoJq1-HF-92" value="FABRICANTE" style="ellipse;whiteSpace=wrap;html=1;" vertex="1" parent="YuKRNsVVMTfTOoJq1-HF-1">
                    <mxGeometry x="2505" y="511" width="120" height="80" as="geometry"/>
                </mxCell>
                <mxCell id="YuKRNsVVMTfTOoJq1-HF-93" style="edgeStyle=none;html=1;exitX=1;exitY=0.5;exitDx=0;exitDy=0;entryX=0;entryY=0.5;entryDx=0;entryDy=0;" edge="1" parent="YuKRNsVVMTfTOoJq1-HF-1" source="YuKRNsVVMTfTOoJq1-HF-94" target="YuKRNsVVMTfTOoJq1-HF-84">
                    <mxGeometry relative="1" as="geometry"/>
                </mxCell>
                <mxCell id="YuKRNsVVMTfTOoJq1-HF-94" value="POTENCIA" style="ellipse;whiteSpace=wrap;html=1;" vertex="1" parent="YuKRNsVVMTfTOoJq1-HF-1">
                    <mxGeometry x="2430" y="375" width="120" height="80" as="geometry"/>
                </mxCell>
                <mxCell id="YuKRNsVVMTfTOoJq1-HF-95" style="edgeStyle=none;html=1;exitX=0;exitY=1;exitDx=0;exitDy=0;entryX=0.75;entryY=0;entryDx=0;entryDy=0;" edge="1" parent="YuKRNsVVMTfTOoJq1-HF-1" source="YuKRNsVVMTfTOoJq1-HF-96" target="YuKRNsVVMTfTOoJq1-HF-84">
                    <mxGeometry relative="1" as="geometry"/>
                </mxCell>
                <mxCell id="YuKRNsVVMTfTOoJq1-HF-96" value="VALOR" style="ellipse;whiteSpace=wrap;html=1;" vertex="1" parent="YuKRNsVVMTfTOoJq1-HF-1">
                    <mxGeometry x="2730" y="260" width="120" height="80" as="geometry"/>
                </mxCell>
                <mxCell id="YuKRNsVVMTfTOoJq1-HF-97" style="edgeStyle=none;html=1;exitX=0;exitY=0;exitDx=0;exitDy=0;entryX=0.75;entryY=1;entryDx=0;entryDy=0;" edge="1" parent="YuKRNsVVMTfTOoJq1-HF-1" source="YuKRNsVVMTfTOoJq1-HF-98" target="YuKRNsVVMTfTOoJq1-HF-84">
                    <mxGeometry relative="1" as="geometry"/>
                </mxCell>
                <mxCell id="YuKRNsVVMTfTOoJq1-HF-98" value="TIPO&lt;br&gt;SMD / THROUGH HOLE" style="ellipse;whiteSpace=wrap;html=1;" vertex="1" parent="YuKRNsVVMTfTOoJq1-HF-1">
                    <mxGeometry x="2740" y="490" width="120" height="80" as="geometry"/>
                </mxCell>
                <mxCell id="YuKRNsVVMTfTOoJq1-HF-99" value="CAPACITOR" style="rounded=0;whiteSpace=wrap;html=1;fillColor=#1ba1e2;fontColor=#ffffff;strokeColor=#006EAF;" vertex="1" parent="YuKRNsVVMTfTOoJq1-HF-1">
                    <mxGeometry x="2615" y="830" width="140" height="60" as="geometry"/>
                </mxCell>
                <mxCell id="YuKRNsVVMTfTOoJq1-HF-100" style="edgeStyle=none;html=1;exitX=1;exitY=1;exitDx=0;exitDy=0;entryX=0.25;entryY=0;entryDx=0;entryDy=0;" edge="1" parent="YuKRNsVVMTfTOoJq1-HF-1" source="YuKRNsVVMTfTOoJq1-HF-101" target="YuKRNsVVMTfTOoJq1-HF-99">
                    <mxGeometry relative="1" as="geometry"/>
                </mxCell>
                <mxCell id="YuKRNsVVMTfTOoJq1-HF-101" value="ID_PRODUCTO" style="ellipse;whiteSpace=wrap;html=1;" vertex="1" parent="YuKRNsVVMTfTOoJq1-HF-1">
                    <mxGeometry x="2540" y="705" width="120" height="80" as="geometry"/>
                </mxCell>
                <mxCell id="YuKRNsVVMTfTOoJq1-HF-102" style="edgeStyle=none;html=1;exitX=0;exitY=0.5;exitDx=0;exitDy=0;" edge="1" parent="YuKRNsVVMTfTOoJq1-HF-1" source="YuKRNsVVMTfTOoJq1-HF-103">
                    <mxGeometry relative="1" as="geometry">
                        <mxPoint x="2750" y="860" as="targetPoint"/>
                    </mxGeometry>
                </mxCell>
                <mxCell id="YuKRNsVVMTfTOoJq1-HF-103" value="TOLERANCIA" style="ellipse;whiteSpace=wrap;html=1;" vertex="1" parent="YuKRNsVVMTfTOoJq1-HF-1">
                    <mxGeometry x="2820" y="775" width="120" height="80" as="geometry"/>
                </mxCell>
                <mxCell id="YuKRNsVVMTfTOoJq1-HF-104" style="edgeStyle=none;html=1;exitX=0.5;exitY=0;exitDx=0;exitDy=0;entryX=0.5;entryY=1;entryDx=0;entryDy=0;" edge="1" parent="YuKRNsVVMTfTOoJq1-HF-1" source="YuKRNsVVMTfTOoJq1-HF-105" target="YuKRNsVVMTfTOoJq1-HF-99">
                    <mxGeometry relative="1" as="geometry"/>
                </mxCell>
                <mxCell id="YuKRNsVVMTfTOoJq1-HF-105" value="HOJA DE DATOS" style="ellipse;whiteSpace=wrap;html=1;" vertex="1" parent="YuKRNsVVMTfTOoJq1-HF-1">
                    <mxGeometry x="2625" y="1005" width="120" height="80" as="geometry"/>
                </mxCell>
                <mxCell id="YuKRNsVVMTfTOoJq1-HF-106" style="edgeStyle=none;html=1;exitX=1;exitY=0;exitDx=0;exitDy=0;entryX=0.25;entryY=1;entryDx=0;entryDy=0;" edge="1" parent="YuKRNsVVMTfTOoJq1-HF-1" source="YuKRNsVVMTfTOoJq1-HF-107" target="YuKRNsVVMTfTOoJq1-HF-99">
                    <mxGeometry relative="1" as="geometry"/>
                </mxCell>
                <mxCell id="YuKRNsVVMTfTOoJq1-HF-107" value="FABRICANTE" style="ellipse;whiteSpace=wrap;html=1;" vertex="1" parent="YuKRNsVVMTfTOoJq1-HF-1">
                    <mxGeometry x="2510" y="935" width="120" height="80" as="geometry"/>
                </mxCell>
                <mxCell id="YuKRNsVVMTfTOoJq1-HF-108" style="edgeStyle=none;html=1;exitX=1;exitY=0.5;exitDx=0;exitDy=0;entryX=0;entryY=0.5;entryDx=0;entryDy=0;" edge="1" parent="YuKRNsVVMTfTOoJq1-HF-1" source="YuKRNsVVMTfTOoJq1-HF-109" target="YuKRNsVVMTfTOoJq1-HF-99">
                    <mxGeometry relative="1" as="geometry"/>
                </mxCell>
                <mxCell id="YuKRNsVVMTfTOoJq1-HF-109" value="VOLTAGE" style="ellipse;whiteSpace=wrap;html=1;" vertex="1" parent="YuKRNsVVMTfTOoJq1-HF-1">
                    <mxGeometry x="2430" y="820" width="120" height="80" as="geometry"/>
                </mxCell>
                <mxCell id="YuKRNsVVMTfTOoJq1-HF-110" style="edgeStyle=none;html=1;exitX=0;exitY=1;exitDx=0;exitDy=0;entryX=0.75;entryY=0;entryDx=0;entryDy=0;" edge="1" parent="YuKRNsVVMTfTOoJq1-HF-1" source="YuKRNsVVMTfTOoJq1-HF-111" target="YuKRNsVVMTfTOoJq1-HF-99">
                    <mxGeometry relative="1" as="geometry"/>
                </mxCell>
                <mxCell id="YuKRNsVVMTfTOoJq1-HF-111" value="VALOR" style="ellipse;whiteSpace=wrap;html=1;" vertex="1" parent="YuKRNsVVMTfTOoJq1-HF-1">
                    <mxGeometry x="2730" y="705" width="120" height="80" as="geometry"/>
                </mxCell>
                <mxCell id="YuKRNsVVMTfTOoJq1-HF-112" style="edgeStyle=none;html=1;exitX=0;exitY=0;exitDx=0;exitDy=0;entryX=0.75;entryY=1;entryDx=0;entryDy=0;" edge="1" parent="YuKRNsVVMTfTOoJq1-HF-1" source="YuKRNsVVMTfTOoJq1-HF-113" target="YuKRNsVVMTfTOoJq1-HF-99">
                    <mxGeometry relative="1" as="geometry"/>
                </mxCell>
                <mxCell id="YuKRNsVVMTfTOoJq1-HF-113" value="TIPO&lt;br&gt;SMD / THROUGH HOLE" style="ellipse;whiteSpace=wrap;html=1;" vertex="1" parent="YuKRNsVVMTfTOoJq1-HF-1">
                    <mxGeometry x="2740" y="935" width="120" height="80" as="geometry"/>
                </mxCell>
                <mxCell id="YuKRNsVVMTfTOoJq1-HF-114" value="INDUCTOR" style="rounded=0;whiteSpace=wrap;html=1;fillColor=#1ba1e2;fontColor=#ffffff;strokeColor=#006EAF;" vertex="1" parent="YuKRNsVVMTfTOoJq1-HF-1">
                    <mxGeometry x="2615" y="1339" width="140" height="60" as="geometry"/>
                </mxCell>
                <mxCell id="YuKRNsVVMTfTOoJq1-HF-115" style="edgeStyle=none;html=1;exitX=1;exitY=1;exitDx=0;exitDy=0;entryX=0.25;entryY=0;entryDx=0;entryDy=0;" edge="1" parent="YuKRNsVVMTfTOoJq1-HF-1" source="YuKRNsVVMTfTOoJq1-HF-116" target="YuKRNsVVMTfTOoJq1-HF-114">
                    <mxGeometry relative="1" as="geometry"/>
                </mxCell>
                <mxCell id="YuKRNsVVMTfTOoJq1-HF-116" value="ID_PRODUCTO" style="ellipse;whiteSpace=wrap;html=1;" vertex="1" parent="YuKRNsVVMTfTOoJq1-HF-1">
                    <mxGeometry x="2514" y="1214" width="120" height="80" as="geometry"/>
                </mxCell>
                <mxCell id="YuKRNsVVMTfTOoJq1-HF-117" style="edgeStyle=none;html=1;exitX=0;exitY=0.5;exitDx=0;exitDy=0;" edge="1" parent="YuKRNsVVMTfTOoJq1-HF-1" source="YuKRNsVVMTfTOoJq1-HF-118">
                    <mxGeometry relative="1" as="geometry">
                        <mxPoint x="2750" y="1369" as="targetPoint"/>
                    </mxGeometry>
                </mxCell>
                <mxCell id="YuKRNsVVMTfTOoJq1-HF-118" value="TOLERANCIA" style="ellipse;whiteSpace=wrap;html=1;" vertex="1" parent="YuKRNsVVMTfTOoJq1-HF-1">
                    <mxGeometry x="2820" y="1329" width="120" height="80" as="geometry"/>
                </mxCell>
                <mxCell id="YuKRNsVVMTfTOoJq1-HF-119" style="edgeStyle=none;html=1;exitX=0.5;exitY=0;exitDx=0;exitDy=0;entryX=0.5;entryY=1;entryDx=0;entryDy=0;" edge="1" parent="YuKRNsVVMTfTOoJq1-HF-1" source="YuKRNsVVMTfTOoJq1-HF-120" target="YuKRNsVVMTfTOoJq1-HF-114">
                    <mxGeometry relative="1" as="geometry"/>
                </mxCell>
                <mxCell id="YuKRNsVVMTfTOoJq1-HF-120" value="HOJA DE DATOS" style="ellipse;whiteSpace=wrap;html=1;" vertex="1" parent="YuKRNsVVMTfTOoJq1-HF-1">
                    <mxGeometry x="2625" y="1514" width="120" height="80" as="geometry"/>
                </mxCell>
                <mxCell id="YuKRNsVVMTfTOoJq1-HF-121" style="edgeStyle=none;html=1;exitX=1;exitY=0;exitDx=0;exitDy=0;entryX=0.25;entryY=1;entryDx=0;entryDy=0;" edge="1" parent="YuKRNsVVMTfTOoJq1-HF-1" source="YuKRNsVVMTfTOoJq1-HF-122" target="YuKRNsVVMTfTOoJq1-HF-114">
                    <mxGeometry relative="1" as="geometry"/>
                </mxCell>
                <mxCell id="YuKRNsVVMTfTOoJq1-HF-122" value="FABRICANTE" style="ellipse;whiteSpace=wrap;html=1;" vertex="1" parent="YuKRNsVVMTfTOoJq1-HF-1">
                    <mxGeometry x="2514" y="1440" width="120" height="80" as="geometry"/>
                </mxCell>
                <mxCell id="YuKRNsVVMTfTOoJq1-HF-123" style="edgeStyle=none;html=1;exitX=1;exitY=0.5;exitDx=0;exitDy=0;entryX=0;entryY=0.5;entryDx=0;entryDy=0;" edge="1" parent="YuKRNsVVMTfTOoJq1-HF-1" source="YuKRNsVVMTfTOoJq1-HF-124" target="YuKRNsVVMTfTOoJq1-HF-114">
                    <mxGeometry relative="1" as="geometry"/>
                </mxCell>
                <mxCell id="YuKRNsVVMTfTOoJq1-HF-124" value="RES.PARASITA" style="ellipse;whiteSpace=wrap;html=1;" vertex="1" parent="YuKRNsVVMTfTOoJq1-HF-1">
                    <mxGeometry x="2430" y="1329" width="120" height="80" as="geometry"/>
                </mxCell>
                <mxCell id="YuKRNsVVMTfTOoJq1-HF-125" style="edgeStyle=none;html=1;exitX=0;exitY=1;exitDx=0;exitDy=0;entryX=0.75;entryY=0;entryDx=0;entryDy=0;" edge="1" parent="YuKRNsVVMTfTOoJq1-HF-1" source="YuKRNsVVMTfTOoJq1-HF-126" target="YuKRNsVVMTfTOoJq1-HF-114">
                    <mxGeometry relative="1" as="geometry"/>
                </mxCell>
                <mxCell id="YuKRNsVVMTfTOoJq1-HF-126" value="VALOR" style="ellipse;whiteSpace=wrap;html=1;" vertex="1" parent="YuKRNsVVMTfTOoJq1-HF-1">
                    <mxGeometry x="2730" y="1214" width="120" height="80" as="geometry"/>
                </mxCell>
                <mxCell id="YuKRNsVVMTfTOoJq1-HF-127" style="edgeStyle=none;html=1;exitX=0;exitY=0;exitDx=0;exitDy=0;entryX=0.75;entryY=1;entryDx=0;entryDy=0;" edge="1" parent="YuKRNsVVMTfTOoJq1-HF-1" source="YuKRNsVVMTfTOoJq1-HF-128" target="YuKRNsVVMTfTOoJq1-HF-114">
                    <mxGeometry relative="1" as="geometry"/>
                </mxCell>
                <mxCell id="YuKRNsVVMTfTOoJq1-HF-128" value="TIPO&lt;br&gt;SMD / THROUGH HOLE" style="ellipse;whiteSpace=wrap;html=1;" vertex="1" parent="YuKRNsVVMTfTOoJq1-HF-1">
                    <mxGeometry x="2740" y="1444" width="120" height="80" as="geometry"/>
                </mxCell>
                <mxCell id="YuKRNsVVMTfTOoJq1-HF-129" style="edgeStyle=none;html=1;exitX=0.5;exitY=1;exitDx=0;exitDy=0;" edge="1" parent="YuKRNsVVMTfTOoJq1-HF-1" source="YuKRNsVVMTfTOoJq1-HF-130" target="YuKRNsVVMTfTOoJq1-HF-114">
                    <mxGeometry relative="1" as="geometry"/>
                </mxCell>
                <mxCell id="YuKRNsVVMTfTOoJq1-HF-130" value="TIPO/MATERIAL" style="ellipse;whiteSpace=wrap;html=1;" vertex="1" parent="YuKRNsVVMTfTOoJq1-HF-1">
                    <mxGeometry x="2625" y="1134" width="120" height="80" as="geometry"/>
                </mxCell>
                <mxCell id="YuKRNsVVMTfTOoJq1-HF-131" value="TRANSISTOR" style="rounded=0;whiteSpace=wrap;html=1;fillColor=#1ba1e2;fontColor=#ffffff;strokeColor=#006EAF;" vertex="1" parent="YuKRNsVVMTfTOoJq1-HF-1">
                    <mxGeometry x="3245" y="385" width="140" height="60" as="geometry"/>
                </mxCell>
                <mxCell id="YuKRNsVVMTfTOoJq1-HF-132" style="edgeStyle=none;html=1;exitX=1;exitY=1;exitDx=0;exitDy=0;entryX=0.25;entryY=0;entryDx=0;entryDy=0;" edge="1" parent="YuKRNsVVMTfTOoJq1-HF-1" source="YuKRNsVVMTfTOoJq1-HF-133" target="YuKRNsVVMTfTOoJq1-HF-131">
                    <mxGeometry relative="1" as="geometry"/>
                </mxCell>
                <mxCell id="YuKRNsVVMTfTOoJq1-HF-133" value="ID_PRODUCTO" style="ellipse;whiteSpace=wrap;html=1;" vertex="1" parent="YuKRNsVVMTfTOoJq1-HF-1">
                    <mxGeometry x="3140" y="260" width="120" height="80" as="geometry"/>
                </mxCell>
                <mxCell id="YuKRNsVVMTfTOoJq1-HF-134" style="edgeStyle=none;html=1;exitX=0;exitY=0.5;exitDx=0;exitDy=0;" edge="1" parent="YuKRNsVVMTfTOoJq1-HF-1" source="YuKRNsVVMTfTOoJq1-HF-135">
                    <mxGeometry relative="1" as="geometry">
                        <mxPoint x="3380" y="415" as="targetPoint"/>
                    </mxGeometry>
                </mxCell>
                <mxCell id="YuKRNsVVMTfTOoJq1-HF-135" value="VCO" style="ellipse;whiteSpace=wrap;html=1;" vertex="1" parent="YuKRNsVVMTfTOoJq1-HF-1">
                    <mxGeometry x="3450" y="375" width="120" height="80" as="geometry"/>
                </mxCell>
                <mxCell id="YuKRNsVVMTfTOoJq1-HF-136" style="edgeStyle=none;html=1;exitX=0.5;exitY=0;exitDx=0;exitDy=0;entryX=0.5;entryY=1;entryDx=0;entryDy=0;" edge="1" parent="YuKRNsVVMTfTOoJq1-HF-1" source="YuKRNsVVMTfTOoJq1-HF-137" target="YuKRNsVVMTfTOoJq1-HF-131">
                    <mxGeometry relative="1" as="geometry"/>
                </mxCell>
                <mxCell id="YuKRNsVVMTfTOoJq1-HF-137" value="HOJA DE DATOS" style="ellipse;whiteSpace=wrap;html=1;" vertex="1" parent="YuKRNsVVMTfTOoJq1-HF-1">
                    <mxGeometry x="3255" y="560" width="120" height="80" as="geometry"/>
                </mxCell>
                <mxCell id="YuKRNsVVMTfTOoJq1-HF-138" style="edgeStyle=none;html=1;exitX=1;exitY=0;exitDx=0;exitDy=0;entryX=0.25;entryY=1;entryDx=0;entryDy=0;" edge="1" parent="YuKRNsVVMTfTOoJq1-HF-1" source="YuKRNsVVMTfTOoJq1-HF-139" target="YuKRNsVVMTfTOoJq1-HF-131">
                    <mxGeometry relative="1" as="geometry"/>
                </mxCell>
                <mxCell id="YuKRNsVVMTfTOoJq1-HF-139" value="FABRICANTE" style="ellipse;whiteSpace=wrap;html=1;" vertex="1" parent="YuKRNsVVMTfTOoJq1-HF-1">
                    <mxGeometry x="3140" y="490" width="120" height="80" as="geometry"/>
                </mxCell>
                <mxCell id="YuKRNsVVMTfTOoJq1-HF-140" style="edgeStyle=none;html=1;exitX=1;exitY=0.5;exitDx=0;exitDy=0;entryX=0;entryY=0.5;entryDx=0;entryDy=0;" edge="1" parent="YuKRNsVVMTfTOoJq1-HF-1" source="YuKRNsVVMTfTOoJq1-HF-141" target="YuKRNsVVMTfTOoJq1-HF-131">
                    <mxGeometry relative="1" as="geometry"/>
                </mxCell>
                <mxCell id="YuKRNsVVMTfTOoJq1-HF-141" value="Ic max" style="ellipse;whiteSpace=wrap;html=1;" vertex="1" parent="YuKRNsVVMTfTOoJq1-HF-1">
                    <mxGeometry x="3060" y="375" width="120" height="80" as="geometry"/>
                </mxCell>
                <mxCell id="YuKRNsVVMTfTOoJq1-HF-142" style="edgeStyle=none;html=1;exitX=0;exitY=1;exitDx=0;exitDy=0;entryX=0.75;entryY=0;entryDx=0;entryDy=0;" edge="1" parent="YuKRNsVVMTfTOoJq1-HF-1" source="YuKRNsVVMTfTOoJq1-HF-143" target="YuKRNsVVMTfTOoJq1-HF-131">
                    <mxGeometry relative="1" as="geometry"/>
                </mxCell>
                <mxCell id="YuKRNsVVMTfTOoJq1-HF-143" value="TIPO" style="ellipse;whiteSpace=wrap;html=1;" vertex="1" parent="YuKRNsVVMTfTOoJq1-HF-1">
                    <mxGeometry x="3360" y="260" width="120" height="80" as="geometry"/>
                </mxCell>
                <mxCell id="YuKRNsVVMTfTOoJq1-HF-144" style="edgeStyle=none;html=1;exitX=0;exitY=0;exitDx=0;exitDy=0;entryX=0.75;entryY=1;entryDx=0;entryDy=0;" edge="1" parent="YuKRNsVVMTfTOoJq1-HF-1" source="YuKRNsVVMTfTOoJq1-HF-145" target="YuKRNsVVMTfTOoJq1-HF-131">
                    <mxGeometry relative="1" as="geometry"/>
                </mxCell>
                <mxCell id="YuKRNsVVMTfTOoJq1-HF-145" value="TIPO&lt;br&gt;SMD / THROUGH HOLE" style="ellipse;whiteSpace=wrap;html=1;" vertex="1" parent="YuKRNsVVMTfTOoJq1-HF-1">
                    <mxGeometry x="3370" y="490" width="120" height="80" as="geometry"/>
                </mxCell>
                <mxCell id="YuKRNsVVMTfTOoJq1-HF-146" style="edgeStyle=none;html=1;entryX=0.5;entryY=0;entryDx=0;entryDy=0;" edge="1" parent="YuKRNsVVMTfTOoJq1-HF-1" source="YuKRNsVVMTfTOoJq1-HF-147" target="YuKRNsVVMTfTOoJq1-HF-131">
                    <mxGeometry relative="1" as="geometry"/>
                </mxCell>
                <mxCell id="YuKRNsVVMTfTOoJq1-HF-147" value="TECNOLOGÍA" style="ellipse;whiteSpace=wrap;html=1;" vertex="1" parent="YuKRNsVVMTfTOoJq1-HF-1">
                    <mxGeometry x="3255" y="190" width="120" height="80" as="geometry"/>
                </mxCell>
                <mxCell id="YuKRNsVVMTfTOoJq1-HF-148" value="IC COMPUERTAS" style="rounded=0;whiteSpace=wrap;html=1;fillColor=#1ba1e2;fontColor=#ffffff;strokeColor=#006EAF;" vertex="1" parent="YuKRNsVVMTfTOoJq1-HF-1">
                    <mxGeometry x="3245" y="906" width="140" height="60" as="geometry"/>
                </mxCell>
                <mxCell id="YuKRNsVVMTfTOoJq1-HF-149" style="edgeStyle=none;html=1;exitX=1;exitY=1;exitDx=0;exitDy=0;entryX=0.25;entryY=0;entryDx=0;entryDy=0;" edge="1" parent="YuKRNsVVMTfTOoJq1-HF-1" source="YuKRNsVVMTfTOoJq1-HF-150" target="YuKRNsVVMTfTOoJq1-HF-148">
                    <mxGeometry relative="1" as="geometry"/>
                </mxCell>
                <mxCell id="YuKRNsVVMTfTOoJq1-HF-150" value="ID_PRODUCTO" style="ellipse;whiteSpace=wrap;html=1;" vertex="1" parent="YuKRNsVVMTfTOoJq1-HF-1">
                    <mxGeometry x="3140" y="781" width="120" height="80" as="geometry"/>
                </mxCell>
                <mxCell id="YuKRNsVVMTfTOoJq1-HF-151" style="edgeStyle=none;html=1;exitX=0;exitY=0.5;exitDx=0;exitDy=0;" edge="1" parent="YuKRNsVVMTfTOoJq1-HF-1" source="YuKRNsVVMTfTOoJq1-HF-152">
                    <mxGeometry relative="1" as="geometry">
                        <mxPoint x="3380" y="936" as="targetPoint"/>
                    </mxGeometry>
                </mxCell>
                <mxCell id="YuKRNsVVMTfTOoJq1-HF-152" value="LOGICA" style="ellipse;whiteSpace=wrap;html=1;" vertex="1" parent="YuKRNsVVMTfTOoJq1-HF-1">
                    <mxGeometry x="3440" y="861" width="120" height="80" as="geometry"/>
                </mxCell>
                <mxCell id="YuKRNsVVMTfTOoJq1-HF-153" style="edgeStyle=none;html=1;exitX=0.5;exitY=0;exitDx=0;exitDy=0;entryX=0.5;entryY=1;entryDx=0;entryDy=0;" edge="1" parent="YuKRNsVVMTfTOoJq1-HF-1" source="YuKRNsVVMTfTOoJq1-HF-154" target="YuKRNsVVMTfTOoJq1-HF-148">
                    <mxGeometry relative="1" as="geometry"/>
                </mxCell>
                <mxCell id="YuKRNsVVMTfTOoJq1-HF-154" value="HOJA DE DATOS" style="ellipse;whiteSpace=wrap;html=1;" vertex="1" parent="YuKRNsVVMTfTOoJq1-HF-1">
                    <mxGeometry x="3255" y="1081" width="120" height="80" as="geometry"/>
                </mxCell>
                <mxCell id="YuKRNsVVMTfTOoJq1-HF-155" style="edgeStyle=none;html=1;exitX=1;exitY=0;exitDx=0;exitDy=0;entryX=0.25;entryY=1;entryDx=0;entryDy=0;" edge="1" parent="YuKRNsVVMTfTOoJq1-HF-1" source="YuKRNsVVMTfTOoJq1-HF-156" target="YuKRNsVVMTfTOoJq1-HF-148">
                    <mxGeometry relative="1" as="geometry"/>
                </mxCell>
                <mxCell id="YuKRNsVVMTfTOoJq1-HF-156" value="FABRICANTE" style="ellipse;whiteSpace=wrap;html=1;" vertex="1" parent="YuKRNsVVMTfTOoJq1-HF-1">
                    <mxGeometry x="3140" y="1011" width="120" height="80" as="geometry"/>
                </mxCell>
                <mxCell id="YuKRNsVVMTfTOoJq1-HF-157" style="edgeStyle=none;html=1;exitX=1;exitY=0.5;exitDx=0;exitDy=0;entryX=0;entryY=0.5;entryDx=0;entryDy=0;" edge="1" parent="YuKRNsVVMTfTOoJq1-HF-1" source="YuKRNsVVMTfTOoJq1-HF-158" target="YuKRNsVVMTfTOoJq1-HF-148">
                    <mxGeometry relative="1" as="geometry"/>
                </mxCell>
                <mxCell id="YuKRNsVVMTfTOoJq1-HF-158" value="Io max" style="ellipse;whiteSpace=wrap;html=1;" vertex="1" parent="YuKRNsVVMTfTOoJq1-HF-1">
                    <mxGeometry x="3061" y="896" width="120" height="80" as="geometry"/>
                </mxCell>
                <mxCell id="YuKRNsVVMTfTOoJq1-HF-159" style="edgeStyle=none;html=1;exitX=0;exitY=1;exitDx=0;exitDy=0;entryX=0.75;entryY=0;entryDx=0;entryDy=0;" edge="1" parent="YuKRNsVVMTfTOoJq1-HF-1" source="YuKRNsVVMTfTOoJq1-HF-160" target="YuKRNsVVMTfTOoJq1-HF-148">
                    <mxGeometry relative="1" as="geometry"/>
                </mxCell>
                <mxCell id="YuKRNsVVMTfTOoJq1-HF-160" value="VCC" style="ellipse;whiteSpace=wrap;html=1;" vertex="1" parent="YuKRNsVVMTfTOoJq1-HF-1">
                    <mxGeometry x="3360" y="781" width="120" height="80" as="geometry"/>
                </mxCell>
                <mxCell id="YuKRNsVVMTfTOoJq1-HF-161" style="edgeStyle=none;html=1;exitX=0;exitY=0;exitDx=0;exitDy=0;entryX=0.75;entryY=1;entryDx=0;entryDy=0;" edge="1" parent="YuKRNsVVMTfTOoJq1-HF-1" source="YuKRNsVVMTfTOoJq1-HF-162" target="YuKRNsVVMTfTOoJq1-HF-148">
                    <mxGeometry relative="1" as="geometry"/>
                </mxCell>
                <mxCell id="YuKRNsVVMTfTOoJq1-HF-162" value="TIPO&lt;br&gt;SMD / THROUGH HOLE" style="ellipse;whiteSpace=wrap;html=1;" vertex="1" parent="YuKRNsVVMTfTOoJq1-HF-1">
                    <mxGeometry x="3370" y="1011" width="120" height="80" as="geometry"/>
                </mxCell>
                <mxCell id="YuKRNsVVMTfTOoJq1-HF-163" style="edgeStyle=none;html=1;entryX=0.5;entryY=0;entryDx=0;entryDy=0;" edge="1" parent="YuKRNsVVMTfTOoJq1-HF-1" source="YuKRNsVVMTfTOoJq1-HF-164" target="YuKRNsVVMTfTOoJq1-HF-148">
                    <mxGeometry relative="1" as="geometry"/>
                </mxCell>
                <mxCell id="YuKRNsVVMTfTOoJq1-HF-164" value="TECNOLOGÍA" style="ellipse;whiteSpace=wrap;html=1;" vertex="1" parent="YuKRNsVVMTfTOoJq1-HF-1">
                    <mxGeometry x="3255" y="711" width="120" height="80" as="geometry"/>
                </mxCell>
                <mxCell id="YuKRNsVVMTfTOoJq1-HF-165" style="edgeStyle=none;html=1;exitX=0;exitY=0.5;exitDx=0;exitDy=0;entryX=1;entryY=0.75;entryDx=0;entryDy=0;" edge="1" parent="YuKRNsVVMTfTOoJq1-HF-1" source="YuKRNsVVMTfTOoJq1-HF-166" target="YuKRNsVVMTfTOoJq1-HF-148">
                    <mxGeometry relative="1" as="geometry"/>
                </mxCell>
                <mxCell id="YuKRNsVVMTfTOoJq1-HF-166" value="DESCRIPCIÓN" style="ellipse;whiteSpace=wrap;html=1;" vertex="1" parent="YuKRNsVVMTfTOoJq1-HF-1">
                    <mxGeometry x="3490" y="954" width="120" height="80" as="geometry"/>
                </mxCell>
                <mxCell id="YuKRNsVVMTfTOoJq1-HF-167" style="edgeStyle=none;html=1;exitX=1;exitY=0.5;exitDx=0;exitDy=0;entryX=0;entryY=0;entryDx=0;entryDy=0;" edge="1" parent="YuKRNsVVMTfTOoJq1-HF-1" source="YuKRNsVVMTfTOoJq1-HF-172" target="YuKRNsVVMTfTOoJq1-HF-99">
                    <mxGeometry relative="1" as="geometry"/>
                </mxCell>
                <mxCell id="YuKRNsVVMTfTOoJq1-HF-168" style="edgeStyle=none;html=1;exitX=1;exitY=0.5;exitDx=0;exitDy=0;entryX=0;entryY=1;entryDx=0;entryDy=0;" edge="1" parent="YuKRNsVVMTfTOoJq1-HF-1" source="YuKRNsVVMTfTOoJq1-HF-172" target="YuKRNsVVMTfTOoJq1-HF-84">
                    <mxGeometry relative="1" as="geometry">
                        <Array as="points">
                            <mxPoint x="2470" y="530"/>
                        </Array>
                    </mxGeometry>
                </mxCell>
                <mxCell id="YuKRNsVVMTfTOoJq1-HF-169" style="edgeStyle=none;html=1;entryX=0;entryY=1;entryDx=0;entryDy=0;exitX=1;exitY=0.5;exitDx=0;exitDy=0;" edge="1" parent="YuKRNsVVMTfTOoJq1-HF-1" source="YuKRNsVVMTfTOoJq1-HF-172" target="YuKRNsVVMTfTOoJq1-HF-131">
                    <mxGeometry relative="1" as="geometry">
                        <Array as="points">
                            <mxPoint x="2830" y="650"/>
                        </Array>
                    </mxGeometry>
                </mxCell>
                <mxCell id="YuKRNsVVMTfTOoJq1-HF-170" style="edgeStyle=none;html=1;entryX=0;entryY=0;entryDx=0;entryDy=0;exitX=1;exitY=0.5;exitDx=0;exitDy=0;" edge="1" parent="YuKRNsVVMTfTOoJq1-HF-1" source="YuKRNsVVMTfTOoJq1-HF-172" target="YuKRNsVVMTfTOoJq1-HF-148">
                    <mxGeometry relative="1" as="geometry">
                        <Array as="points">
                            <mxPoint x="2820" y="650"/>
                        </Array>
                    </mxGeometry>
                </mxCell>
                <mxCell id="YuKRNsVVMTfTOoJq1-HF-171" style="edgeStyle=none;html=1;exitX=1;exitY=0.5;exitDx=0;exitDy=0;entryX=0;entryY=0;entryDx=0;entryDy=0;" edge="1" parent="YuKRNsVVMTfTOoJq1-HF-1" source="YuKRNsVVMTfTOoJq1-HF-172" target="YuKRNsVVMTfTOoJq1-HF-114">
                    <mxGeometry relative="1" as="geometry">
                        <Array as="points">
                            <mxPoint x="2430" y="1270"/>
                        </Array>
                    </mxGeometry>
                </mxCell>
                <mxCell id="YuKRNsVVMTfTOoJq1-HF-172" value="CONTIENE" style="rhombus;whiteSpace=wrap;html=1;" vertex="1" parent="YuKRNsVVMTfTOoJq1-HF-1">
                    <mxGeometry x="2240" y="670" width="150" height="80" as="geometry"/>
                </mxCell>
                <mxCell id="YuKRNsVVMTfTOoJq1-HF-173" style="edgeStyle=none;html=1;exitX=1;exitY=0;exitDx=0;exitDy=0;entryX=0.404;entryY=1.024;entryDx=0;entryDy=0;entryPerimeter=0;" edge="1" parent="YuKRNsVVMTfTOoJq1-HF-1" source="YuKRNsVVMTfTOoJq1-HF-174" target="YuKRNsVVMTfTOoJq1-HF-40">
                    <mxGeometry relative="1" as="geometry"/>
                </mxCell>
                <mxCell id="YuKRNsVVMTfTOoJq1-HF-174" value="INGRESO/EGRESO" style="ellipse;whiteSpace=wrap;html=1;" vertex="1" parent="YuKRNsVVMTfTOoJq1-HF-1">
                    <mxGeometry x="1210" y="1150" width="120" height="80" as="geometry"/>
                </mxCell>
                <mxCell id="YuKRNsVVMTfTOoJq1-HF-175" value="1" style="text;html=1;strokeColor=none;fillColor=none;align=center;verticalAlign=middle;whiteSpace=wrap;rounded=0;strokeWidth=1;fontSize=14;fontStyle=1" vertex="1" parent="YuKRNsVVMTfTOoJq1-HF-1">
                    <mxGeometry x="1185" y="550" width="50" height="30" as="geometry"/>
                </mxCell>
                <mxCell id="YuKRNsVVMTfTOoJq1-HF-176" value="N" style="text;html=1;strokeColor=none;fillColor=none;align=center;verticalAlign=middle;whiteSpace=wrap;rounded=0;strokeWidth=1;fontSize=14;fontStyle=1" vertex="1" parent="YuKRNsVVMTfTOoJq1-HF-1">
                    <mxGeometry x="1350" y="550" width="50" height="30" as="geometry"/>
                </mxCell>
                <mxCell id="YuKRNsVVMTfTOoJq1-HF-177" value="1" style="text;html=1;strokeColor=none;fillColor=none;align=center;verticalAlign=middle;whiteSpace=wrap;rounded=0;strokeWidth=1;fontSize=14;fontStyle=1" vertex="1" parent="YuKRNsVVMTfTOoJq1-HF-1">
                    <mxGeometry x="1668" y="550" width="50" height="30" as="geometry"/>
                </mxCell>
                <mxCell id="YuKRNsVVMTfTOoJq1-HF-178" value="1" style="text;html=1;strokeColor=none;fillColor=none;align=center;verticalAlign=middle;whiteSpace=wrap;rounded=0;strokeWidth=1;fontSize=14;fontStyle=1" vertex="1" parent="YuKRNsVVMTfTOoJq1-HF-1">
                    <mxGeometry x="1869" y="550" width="50" height="30" as="geometry"/>
                </mxCell>
                <mxCell id="YuKRNsVVMTfTOoJq1-HF-179" value="1" style="text;html=1;strokeColor=none;fillColor=none;align=center;verticalAlign=middle;whiteSpace=wrap;rounded=0;strokeWidth=1;fontSize=14;fontStyle=1" vertex="1" parent="YuKRNsVVMTfTOoJq1-HF-1">
                    <mxGeometry x="1992" y="710" width="50" height="30" as="geometry"/>
                </mxCell>
                <mxCell id="YuKRNsVVMTfTOoJq1-HF-180" value="1" style="text;html=1;strokeColor=none;fillColor=none;align=center;verticalAlign=middle;whiteSpace=wrap;rounded=0;strokeWidth=1;fontSize=14;fontStyle=1" vertex="1" parent="YuKRNsVVMTfTOoJq1-HF-1">
                    <mxGeometry x="1992" y="815" width="50" height="30" as="geometry"/>
                </mxCell>
                <mxCell id="YuKRNsVVMTfTOoJq1-HF-181" value="1" style="text;html=1;strokeColor=none;fillColor=none;align=center;verticalAlign=middle;whiteSpace=wrap;rounded=0;strokeWidth=1;fontSize=14;fontStyle=1" vertex="1" parent="YuKRNsVVMTfTOoJq1-HF-1">
                    <mxGeometry x="1771" y="984" width="50" height="30" as="geometry"/>
                </mxCell>
                <mxCell id="YuKRNsVVMTfTOoJq1-HF-182" value="N" style="text;html=1;strokeColor=none;fillColor=none;align=center;verticalAlign=middle;whiteSpace=wrap;rounded=0;strokeWidth=1;fontSize=14;fontStyle=1" vertex="1" parent="YuKRNsVVMTfTOoJq1-HF-1">
                    <mxGeometry x="1591" y="984" width="50" height="30" as="geometry"/>
                </mxCell>
                <mxCell id="YuKRNsVVMTfTOoJq1-HF-183" value="1" style="text;html=1;strokeColor=none;fillColor=none;align=center;verticalAlign=middle;whiteSpace=wrap;rounded=0;strokeWidth=1;fontSize=14;fontStyle=1" vertex="1" parent="YuKRNsVVMTfTOoJq1-HF-1">
                    <mxGeometry x="1190" y="890" width="50" height="30" as="geometry"/>
                </mxCell>
                <mxCell id="YuKRNsVVMTfTOoJq1-HF-184" value="1" style="text;html=1;strokeColor=none;fillColor=none;align=center;verticalAlign=middle;whiteSpace=wrap;rounded=0;strokeWidth=1;fontSize=14;fontStyle=1" vertex="1" parent="YuKRNsVVMTfTOoJq1-HF-1">
                    <mxGeometry x="1120" y="815" width="50" height="30" as="geometry"/>
                </mxCell>
                <mxCell id="YuKRNsVVMTfTOoJq1-HF-185" value="1" style="text;html=1;strokeColor=none;fillColor=none;align=center;verticalAlign=middle;whiteSpace=wrap;rounded=0;strokeWidth=1;fontSize=14;fontStyle=1" vertex="1" parent="YuKRNsVVMTfTOoJq1-HF-1">
                    <mxGeometry x="2230" y="725" width="50" height="30" as="geometry"/>
                </mxCell>
                <mxCell id="YuKRNsVVMTfTOoJq1-HF-186" value="M" style="text;html=1;strokeColor=none;fillColor=none;align=center;verticalAlign=middle;whiteSpace=wrap;rounded=0;strokeWidth=1;fontSize=14;fontStyle=1" vertex="1" parent="YuKRNsVVMTfTOoJq1-HF-1">
                    <mxGeometry x="2440" y="500" width="50" height="30" as="geometry"/>
                </mxCell>
                <mxCell id="YuKRNsVVMTfTOoJq1-HF-187" value="J" style="text;html=1;strokeColor=none;fillColor=none;align=center;verticalAlign=middle;whiteSpace=wrap;rounded=0;strokeWidth=1;fontSize=14;fontStyle=1" vertex="1" parent="YuKRNsVVMTfTOoJq1-HF-1">
                    <mxGeometry x="2840" y="595" width="50" height="30" as="geometry"/>
                </mxCell>
                <mxCell id="YuKRNsVVMTfTOoJq1-HF-188" value="K" style="text;html=1;strokeColor=none;fillColor=none;align=center;verticalAlign=middle;whiteSpace=wrap;rounded=0;strokeWidth=1;fontSize=14;fontStyle=1" vertex="1" parent="YuKRNsVVMTfTOoJq1-HF-1">
                    <mxGeometry x="2900" y="675" width="50" height="30" as="geometry"/>
                </mxCell>
                <mxCell id="YuKRNsVVMTfTOoJq1-HF-189" value="L" style="text;html=1;strokeColor=none;fillColor=none;align=center;verticalAlign=middle;whiteSpace=wrap;rounded=0;strokeWidth=1;fontSize=14;fontStyle=1" vertex="1" parent="YuKRNsVVMTfTOoJq1-HF-1">
                    <mxGeometry x="2440" y="751" width="50" height="30" as="geometry"/>
                </mxCell>
                <mxCell id="YuKRNsVVMTfTOoJq1-HF-190" value="H" style="text;html=1;strokeColor=none;fillColor=none;align=center;verticalAlign=middle;whiteSpace=wrap;rounded=0;strokeWidth=1;fontSize=14;fontStyle=1" vertex="1" parent="YuKRNsVVMTfTOoJq1-HF-1">
                    <mxGeometry x="2410" y="1044" width="50" height="30" as="geometry"/>
                </mxCell>
                <mxCell id="YuKRNsVVMTfTOoJq1-HF-191" value="PK" style="text;html=1;strokeColor=none;fillColor=none;align=center;verticalAlign=middle;whiteSpace=wrap;rounded=0;strokeWidth=1;fontSize=14;fontStyle=1" vertex="1" parent="YuKRNsVVMTfTOoJq1-HF-1">
                    <mxGeometry x="1340" y="430" width="50" height="30" as="geometry"/>
                </mxCell>
                <mxCell id="YuKRNsVVMTfTOoJq1-HF-192" style="edgeStyle=none;html=1;entryX=1;entryY=0.75;entryDx=0;entryDy=0;fontSize=14;" edge="1" parent="YuKRNsVVMTfTOoJq1-HF-1" source="YuKRNsVVMTfTOoJq1-HF-193" target="YuKRNsVVMTfTOoJq1-HF-3">
                    <mxGeometry relative="1" as="geometry"/>
                </mxCell>
                <mxCell id="YuKRNsVVMTfTOoJq1-HF-193" value="NRO LEG SUPERIOR" style="ellipse;whiteSpace=wrap;html=1;" vertex="1" parent="YuKRNsVVMTfTOoJq1-HF-1">
                    <mxGeometry x="1115" y="590" width="120" height="80" as="geometry"/>
                </mxCell>
                <mxCell id="YuKRNsVVMTfTOoJq1-HF-194" value="FK" style="text;html=1;strokeColor=none;fillColor=none;align=center;verticalAlign=middle;whiteSpace=wrap;rounded=0;strokeWidth=1;fontSize=14;fontStyle=1" vertex="1" parent="YuKRNsVVMTfTOoJq1-HF-1">
                    <mxGeometry x="1210" y="650" width="50" height="30" as="geometry"/>
                </mxCell>
                <mxCell id="YuKRNsVVMTfTOoJq1-HF-195" value="FK" style="text;html=1;strokeColor=none;fillColor=none;align=center;verticalAlign=middle;whiteSpace=wrap;rounded=0;strokeWidth=1;fontSize=14;fontStyle=1" vertex="1" parent="YuKRNsVVMTfTOoJq1-HF-1">
                    <mxGeometry x="1465" y="365" width="50" height="30" as="geometry"/>
                </mxCell>
                <mxCell id="YuKRNsVVMTfTOoJq1-HF-196" style="edgeStyle=none;html=1;exitX=1;exitY=1;exitDx=0;exitDy=0;entryX=0;entryY=0;entryDx=0;entryDy=0;fontSize=14;" edge="1" parent="YuKRNsVVMTfTOoJq1-HF-1" source="YuKRNsVVMTfTOoJq1-HF-197" target="YuKRNsVVMTfTOoJq1-HF-63">
                    <mxGeometry relative="1" as="geometry"/>
                </mxCell>
                <mxCell id="YuKRNsVVMTfTOoJq1-HF-197" value="ENUMERACIÓN" style="ellipse;whiteSpace=wrap;html=1;" vertex="1" parent="YuKRNsVVMTfTOoJq1-HF-1">
                    <mxGeometry x="1821" y="440" width="120" height="80" as="geometry"/>
                </mxCell>
                <mxCell id="YuKRNsVVMTfTOoJq1-HF-198" value="PK" style="text;html=1;strokeColor=none;fillColor=none;align=center;verticalAlign=middle;whiteSpace=wrap;rounded=0;strokeWidth=1;fontSize=14;fontStyle=1" vertex="1" parent="YuKRNsVVMTfTOoJq1-HF-1">
                    <mxGeometry x="1821" y="415" width="50" height="30" as="geometry"/>
                </mxCell>
                <mxCell id="YuKRNsVVMTfTOoJq1-HF-199" value="FK" style="text;html=1;strokeColor=none;fillColor=none;align=center;verticalAlign=middle;whiteSpace=wrap;rounded=0;strokeWidth=1;fontSize=14;fontStyle=1" vertex="1" parent="YuKRNsVVMTfTOoJq1-HF-1">
                    <mxGeometry x="2150" y="656" width="50" height="30" as="geometry"/>
                </mxCell>
                <mxCell id="YuKRNsVVMTfTOoJq1-HF-200" value="PK" style="text;html=1;strokeColor=none;fillColor=none;align=center;verticalAlign=middle;whiteSpace=wrap;rounded=0;strokeWidth=1;fontSize=14;fontStyle=1" vertex="1" parent="YuKRNsVVMTfTOoJq1-HF-1">
                    <mxGeometry x="1900" y="844" width="50" height="30" as="geometry"/>
                </mxCell>
                <mxCell id="YuKRNsVVMTfTOoJq1-HF-201" value="FK" style="text;html=1;strokeColor=none;fillColor=none;align=center;verticalAlign=middle;whiteSpace=wrap;rounded=0;strokeWidth=1;fontSize=14;fontStyle=1" vertex="1" parent="YuKRNsVVMTfTOoJq1-HF-1">
                    <mxGeometry x="2140" y="855" width="50" height="30" as="geometry"/>
                </mxCell>
                <mxCell id="YuKRNsVVMTfTOoJq1-HF-202" value="FK" style="text;html=1;strokeColor=none;fillColor=none;align=center;verticalAlign=middle;whiteSpace=wrap;rounded=0;strokeWidth=1;fontSize=14;fontStyle=1" vertex="1" parent="YuKRNsVVMTfTOoJq1-HF-1">
                    <mxGeometry x="1870" y="1161" width="50" height="30" as="geometry"/>
                </mxCell>
                <mxCell id="YuKRNsVVMTfTOoJq1-HF-203" value="PK" style="text;html=1;strokeColor=none;fillColor=none;align=center;verticalAlign=middle;whiteSpace=wrap;rounded=0;strokeWidth=1;fontSize=14;fontStyle=1" vertex="1" parent="YuKRNsVVMTfTOoJq1-HF-1">
                    <mxGeometry x="2505" y="240" width="50" height="30" as="geometry"/>
                </mxCell>
                <mxCell id="YuKRNsVVMTfTOoJq1-HF-204" value="PK" style="text;html=1;strokeColor=none;fillColor=none;align=center;verticalAlign=middle;whiteSpace=wrap;rounded=0;strokeWidth=1;fontSize=14;fontStyle=1" vertex="1" parent="YuKRNsVVMTfTOoJq1-HF-1">
                    <mxGeometry x="3130" y="240" width="50" height="30" as="geometry"/>
                </mxCell>
                <mxCell id="YuKRNsVVMTfTOoJq1-HF-205" value="PK" style="text;html=1;strokeColor=none;fillColor=none;align=center;verticalAlign=middle;whiteSpace=wrap;rounded=0;strokeWidth=1;fontSize=14;fontStyle=1" vertex="1" parent="YuKRNsVVMTfTOoJq1-HF-1">
                    <mxGeometry x="3130" y="765" width="50" height="30" as="geometry"/>
                </mxCell>
                <mxCell id="YuKRNsVVMTfTOoJq1-HF-206" value="PK" style="text;html=1;strokeColor=none;fillColor=none;align=center;verticalAlign=middle;whiteSpace=wrap;rounded=0;strokeWidth=1;fontSize=14;fontStyle=1" vertex="1" parent="YuKRNsVVMTfTOoJq1-HF-1">
                    <mxGeometry x="2634" y="700" width="50" height="30" as="geometry"/>
                </mxCell>
                <mxCell id="YuKRNsVVMTfTOoJq1-HF-207" value="FK" style="text;html=1;strokeColor=none;fillColor=none;align=center;verticalAlign=middle;whiteSpace=wrap;rounded=0;strokeWidth=1;fontSize=14;fontStyle=1" vertex="1" parent="YuKRNsVVMTfTOoJq1-HF-1">
                    <mxGeometry x="1871" y="675" width="50" height="30" as="geometry"/>
                </mxCell>
                <mxCell id="YuKRNsVVMTfTOoJq1-HF-208" style="edgeStyle=none;html=1;exitX=0;exitY=0.5;exitDx=0;exitDy=0;entryX=1;entryY=0.75;entryDx=0;entryDy=0;fontSize=14;" edge="1" parent="YuKRNsVVMTfTOoJq1-HF-1" source="YuKRNsVVMTfTOoJq1-HF-209" target="YuKRNsVVMTfTOoJq1-HF-99">
                    <mxGeometry relative="1" as="geometry"/>
                </mxCell>
                <mxCell id="YuKRNsVVMTfTOoJq1-HF-209" value="TIPO/MATERIAL" style="ellipse;whiteSpace=wrap;html=1;" vertex="1" parent="YuKRNsVVMTfTOoJq1-HF-1">
                    <mxGeometry x="2840" y="865" width="120" height="80" as="geometry"/>
                </mxCell>
                <mxCell id="YuKRNsVVMTfTOoJq1-HF-210" value="PK" style="text;html=1;strokeColor=none;fillColor=none;align=center;verticalAlign=middle;whiteSpace=wrap;rounded=0;strokeWidth=1;fontSize=14;fontStyle=1" vertex="1" parent="YuKRNsVVMTfTOoJq1-HF-1">
                    <mxGeometry x="2510" y="1191" width="50" height="30" as="geometry"/>
                </mxCell>
                <mxCell id="YuKRNsVVMTfTOoJq1-HF-211" value="PK" style="text;html=1;strokeColor=none;fillColor=none;align=center;verticalAlign=middle;whiteSpace=wrap;rounded=0;strokeWidth=1;fontSize=14;fontStyle=1" vertex="1" parent="YuKRNsVVMTfTOoJq1-HF-1">
                    <mxGeometry x="1460" y="834" width="50" height="30" as="geometry"/>
                </mxCell>
                <mxCell id="YuKRNsVVMTfTOoJq1-HF-212" value="FK" style="text;html=1;strokeColor=none;fillColor=none;align=center;verticalAlign=middle;whiteSpace=wrap;rounded=0;strokeWidth=1;fontSize=14;fontStyle=1" vertex="1" parent="YuKRNsVVMTfTOoJq1-HF-1">
                    <mxGeometry x="1289" y="844" width="50" height="30" as="geometry"/>
                </mxCell>
                <mxCell id="YuKRNsVVMTfTOoJq1-HF-213" value="FK" style="text;html=1;strokeColor=none;fillColor=none;align=center;verticalAlign=middle;whiteSpace=wrap;rounded=0;strokeWidth=1;fontSize=14;fontStyle=1" vertex="1" parent="YuKRNsVVMTfTOoJq1-HF-1">
                    <mxGeometry x="1488" y="1036" width="50" height="30" as="geometry"/>
                </mxCell>
                <mxCell id="YuKRNsVVMTfTOoJq1-HF-214" style="edgeStyle=none;html=1;exitX=0;exitY=0;exitDx=0;exitDy=0;entryX=0.75;entryY=1;entryDx=0;entryDy=0;fontSize=14;" edge="1" parent="YuKRNsVVMTfTOoJq1-HF-1" source="YuKRNsVVMTfTOoJq1-HF-215" target="YuKRNsVVMTfTOoJq1-HF-40">
                    <mxGeometry relative="1" as="geometry"/>
                </mxCell>
                <mxCell id="YuKRNsVVMTfTOoJq1-HF-215" value="NOMBRE SUPER." style="ellipse;whiteSpace=wrap;html=1;" vertex="1" parent="YuKRNsVVMTfTOoJq1-HF-1">
                    <mxGeometry x="1556" y="1124" width="120" height="80" as="geometry"/>
                </mxCell>
                <mxCell id="YuKRNsVVMTfTOoJq1-HF-216" style="edgeStyle=none;html=1;exitX=0.5;exitY=0;exitDx=0;exitDy=0;entryX=0.5;entryY=1;entryDx=0;entryDy=0;fontSize=14;" edge="1" parent="YuKRNsVVMTfTOoJq1-HF-1" source="YuKRNsVVMTfTOoJq1-HF-217" target="YuKRNsVVMTfTOoJq1-HF-40">
                    <mxGeometry relative="1" as="geometry"/>
                </mxCell>
                <mxCell id="YuKRNsVVMTfTOoJq1-HF-217" value="NOMBRE AGENT.&lt;br&gt;ENTREGADO" style="ellipse;whiteSpace=wrap;html=1;" vertex="1" parent="YuKRNsVVMTfTOoJq1-HF-1">
                    <mxGeometry x="1320" y="1204" width="120" height="80" as="geometry"/>
                </mxCell>
                <mxCell id="YuKRNsVVMTfTOoJq1-HF-218" value="FK" style="text;html=1;strokeColor=none;fillColor=none;align=center;verticalAlign=middle;whiteSpace=wrap;rounded=0;strokeWidth=1;fontSize=14;fontStyle=1" vertex="1" parent="YuKRNsVVMTfTOoJq1-HF-1">
                    <mxGeometry x="1428" y="1131" width="50" height="30" as="geometry"/>
                </mxCell>
                <mxCell id="YuKRNsVVMTfTOoJq1-HF-219" style="edgeStyle=none;html=1;exitX=1;exitY=1;exitDx=0;exitDy=0;entryX=0;entryY=0;entryDx=0;entryDy=0;" edge="1" parent="YuKRNsVVMTfTOoJq1-HF-1" source="YuKRNsVVMTfTOoJq1-HF-220" target="YuKRNsVVMTfTOoJq1-HF-234">
                    <mxGeometry relative="1" as="geometry"/>
                </mxCell>
                <mxCell id="YuKRNsVVMTfTOoJq1-HF-220" value="PERSONA" style="rounded=0;whiteSpace=wrap;html=1;fillColor=#0050ef;fontColor=#ffffff;strokeColor=#001DBC;" vertex="1" parent="YuKRNsVVMTfTOoJq1-HF-1">
                    <mxGeometry x="480" y="310" width="120" height="60" as="geometry"/>
                </mxCell>
                <mxCell id="YuKRNsVVMTfTOoJq1-HF-221" style="edgeStyle=none;html=1;entryX=0;entryY=0.5;entryDx=0;entryDy=0;" edge="1" parent="YuKRNsVVMTfTOoJq1-HF-1" source="YuKRNsVVMTfTOoJq1-HF-222" target="YuKRNsVVMTfTOoJq1-HF-220">
                    <mxGeometry relative="1" as="geometry"/>
                </mxCell>
                <mxCell id="YuKRNsVVMTfTOoJq1-HF-222" value="SEXO" style="ellipse;whiteSpace=wrap;html=1;" vertex="1" parent="YuKRNsVVMTfTOoJq1-HF-1">
                    <mxGeometry x="310" y="340" width="120" height="80" as="geometry"/>
                </mxCell>
                <mxCell id="YuKRNsVVMTfTOoJq1-HF-223" style="edgeStyle=none;html=1;" edge="1" parent="YuKRNsVVMTfTOoJq1-HF-1" source="YuKRNsVVMTfTOoJq1-HF-224" target="YuKRNsVVMTfTOoJq1-HF-220">
                    <mxGeometry relative="1" as="geometry"/>
                </mxCell>
                <mxCell id="YuKRNsVVMTfTOoJq1-HF-224" value="NOMBRE" style="ellipse;whiteSpace=wrap;html=1;" vertex="1" parent="YuKRNsVVMTfTOoJq1-HF-1">
                    <mxGeometry x="480" y="199" width="120" height="80" as="geometry"/>
                </mxCell>
                <mxCell id="YuKRNsVVMTfTOoJq1-HF-225" style="edgeStyle=none;html=1;" edge="1" parent="YuKRNsVVMTfTOoJq1-HF-1" source="YuKRNsVVMTfTOoJq1-HF-226" target="YuKRNsVVMTfTOoJq1-HF-220">
                    <mxGeometry relative="1" as="geometry"/>
                </mxCell>
                <mxCell id="YuKRNsVVMTfTOoJq1-HF-226" value="APELLIDO" style="ellipse;whiteSpace=wrap;html=1;" vertex="1" parent="YuKRNsVVMTfTOoJq1-HF-1">
                    <mxGeometry x="610" y="210" width="120" height="80" as="geometry"/>
                </mxCell>
                <mxCell id="YuKRNsVVMTfTOoJq1-HF-227" style="edgeStyle=none;html=1;exitX=0;exitY=0;exitDx=0;exitDy=0;entryX=0.644;entryY=1.011;entryDx=0;entryDy=0;entryPerimeter=0;" edge="1" parent="YuKRNsVVMTfTOoJq1-HF-1" source="YuKRNsVVMTfTOoJq1-HF-228" target="YuKRNsVVMTfTOoJq1-HF-220">
                    <mxGeometry relative="1" as="geometry"/>
                </mxCell>
                <mxCell id="YuKRNsVVMTfTOoJq1-HF-228" value="FECHA NACIMIENTO" style="ellipse;whiteSpace=wrap;html=1;" vertex="1" parent="YuKRNsVVMTfTOoJq1-HF-1">
                    <mxGeometry x="560" y="415" width="120" height="80" as="geometry"/>
                </mxCell>
                <mxCell id="YuKRNsVVMTfTOoJq1-HF-229" style="edgeStyle=none;html=1;exitX=1;exitY=0;exitDx=0;exitDy=0;" edge="1" parent="YuKRNsVVMTfTOoJq1-HF-1" source="YuKRNsVVMTfTOoJq1-HF-230" target="YuKRNsVVMTfTOoJq1-HF-220">
                    <mxGeometry relative="1" as="geometry"/>
                </mxCell>
                <mxCell id="YuKRNsVVMTfTOoJq1-HF-230" value="DIRECCIÓN" style="ellipse;whiteSpace=wrap;html=1;" vertex="1" parent="YuKRNsVVMTfTOoJq1-HF-1">
                    <mxGeometry x="400" y="415" width="120" height="80" as="geometry"/>
                </mxCell>
                <mxCell id="YuKRNsVVMTfTOoJq1-HF-231" style="edgeStyle=none;html=1;exitX=0;exitY=0;exitDx=0;exitDy=0;entryX=0.75;entryY=1;entryDx=0;entryDy=0;" edge="1" parent="YuKRNsVVMTfTOoJq1-HF-1" source="YuKRNsVVMTfTOoJq1-HF-232" target="YuKRNsVVMTfTOoJq1-HF-3">
                    <mxGeometry relative="1" as="geometry"/>
                </mxCell>
                <mxCell id="YuKRNsVVMTfTOoJq1-HF-232" value="FECHA INGRESO" style="ellipse;whiteSpace=wrap;html=1;" vertex="1" parent="YuKRNsVVMTfTOoJq1-HF-1">
                    <mxGeometry x="1100" y="680" width="120" height="80" as="geometry"/>
                </mxCell>
                <mxCell id="YuKRNsVVMTfTOoJq1-HF-233" style="edgeStyle=none;html=1;exitX=1;exitY=1;exitDx=0;exitDy=0;entryX=0;entryY=0;entryDx=0;entryDy=0;" edge="1" parent="YuKRNsVVMTfTOoJq1-HF-1" source="YuKRNsVVMTfTOoJq1-HF-234" target="YuKRNsVVMTfTOoJq1-HF-3">
                    <mxGeometry relative="1" as="geometry"/>
                </mxCell>
                <mxCell id="YuKRNsVVMTfTOoJq1-HF-234" value="TRABAJA" style="rhombus;whiteSpace=wrap;html=1;" vertex="1" parent="YuKRNsVVMTfTOoJq1-HF-1">
                    <mxGeometry x="730" y="415" width="150" height="80" as="geometry"/>
                </mxCell>
                <mxCell id="YuKRNsVVMTfTOoJq1-HF-235" value="PK" style="text;html=1;strokeColor=none;fillColor=none;align=center;verticalAlign=middle;whiteSpace=wrap;rounded=0;strokeWidth=1;fontSize=14;fontStyle=1" vertex="1" parent="YuKRNsVVMTfTOoJq1-HF-1">
                    <mxGeometry x="1010" y="400" width="50" height="30" as="geometry"/>
                </mxCell>
                <mxCell id="YuKRNsVVMTfTOoJq1-HF-236" value="1" style="text;html=1;strokeColor=none;fillColor=none;align=center;verticalAlign=middle;whiteSpace=wrap;rounded=0;strokeWidth=1;fontSize=14;fontStyle=1" vertex="1" parent="YuKRNsVVMTfTOoJq1-HF-1">
                    <mxGeometry x="740" y="400" width="50" height="30" as="geometry"/>
                </mxCell>
                <mxCell id="YuKRNsVVMTfTOoJq1-HF-237" value="1" style="text;html=1;strokeColor=none;fillColor=none;align=center;verticalAlign=middle;whiteSpace=wrap;rounded=0;strokeWidth=1;fontSize=14;fontStyle=1" vertex="1" parent="YuKRNsVVMTfTOoJq1-HF-1">
                    <mxGeometry x="845" y="460" width="50" height="30" as="geometry"/>
                </mxCell>
                <mxCell id="YuKRNsVVMTfTOoJq1-HF-238" value="PK" style="text;html=1;strokeColor=none;fillColor=none;align=center;verticalAlign=middle;whiteSpace=wrap;rounded=0;strokeWidth=1;fontSize=14;fontStyle=1" vertex="1" parent="YuKRNsVVMTfTOoJq1-HF-1">
                    <mxGeometry x="380" y="199" width="50" height="30" as="geometry"/>
                </mxCell>
                <mxCell id="YuKRNsVVMTfTOoJq1-HF-239" style="edgeStyle=none;html=1;exitX=1;exitY=1;exitDx=0;exitDy=0;entryX=0.091;entryY=0.002;entryDx=0;entryDy=0;entryPerimeter=0;" edge="1" parent="YuKRNsVVMTfTOoJq1-HF-1" source="YuKRNsVVMTfTOoJq1-HF-240" target="YuKRNsVVMTfTOoJq1-HF-220">
                    <mxGeometry relative="1" as="geometry"/>
                </mxCell>
                <mxCell id="YuKRNsVVMTfTOoJq1-HF-240" value="DNI/PASAPORTE" style="ellipse;whiteSpace=wrap;html=1;" vertex="1" parent="YuKRNsVVMTfTOoJq1-HF-1">
                    <mxGeometry x="330" y="230" width="120" height="80" as="geometry"/>
                </mxCell>
                <mxCell id="YuKRNsVVMTfTOoJq1-HF-241" style="edgeStyle=none;html=1;entryX=1;entryY=0.5;entryDx=0;entryDy=0;" edge="1" parent="YuKRNsVVMTfTOoJq1-HF-1" source="YuKRNsVVMTfTOoJq1-HF-242" target="YuKRNsVVMTfTOoJq1-HF-220">
                    <mxGeometry relative="1" as="geometry"/>
                </mxCell>
                <mxCell id="YuKRNsVVMTfTOoJq1-HF-242" value="TEL CONTACTO" style="ellipse;whiteSpace=wrap;html=1;" vertex="1" parent="YuKRNsVVMTfTOoJq1-HF-1">
                    <mxGeometry x="630" y="305" width="120" height="80" as="geometry"/>
                </mxCell>
                <mxCell id="YuKRNsVVMTfTOoJq1-HF-243" style="edgeStyle=none;html=1;exitX=1;exitY=1;exitDx=0;exitDy=0;entryX=0.5;entryY=0;entryDx=0;entryDy=0;" edge="1" parent="YuKRNsVVMTfTOoJq1-HF-1" source="YuKRNsVVMTfTOoJq1-HF-244" target="YuKRNsVVMTfTOoJq1-HF-3">
                    <mxGeometry relative="1" as="geometry"/>
                </mxCell>
                <mxCell id="YuKRNsVVMTfTOoJq1-HF-244" value="DNI/PASAPORTE" style="ellipse;whiteSpace=wrap;html=1;" vertex="1" parent="YuKRNsVVMTfTOoJq1-HF-1">
                    <mxGeometry x="890" y="420" width="120" height="80" as="geometry"/>
                </mxCell>
                <mxCell id="YuKRNsVVMTfTOoJq1-HF-245" value="FK" style="text;html=1;strokeColor=none;fillColor=none;align=center;verticalAlign=middle;whiteSpace=wrap;rounded=0;strokeWidth=1;fontSize=14;fontStyle=1" vertex="1" parent="YuKRNsVVMTfTOoJq1-HF-1">
                    <mxGeometry x="920" y="395" width="50" height="30" as="geometry"/>
                </mxCell>
            </root>
        </mxGraphModel>
    </diagram>
    <diagram id="_rpGFnUOTw_GPBMy_GtU" name="Instituto">
        <mxGraphModel dx="1052" dy="531" grid="1" gridSize="10" guides="1" tooltips="1" connect="1" arrows="1" fold="1" page="1" pageScale="1" pageWidth="2336" pageHeight="1654" math="0" shadow="0">
            <root>
                <mxCell id="0"/>
                <mxCell id="1" parent="0"/>
                <mxCell id="gnIX7QEPiNbQv1JApcD0-85" style="edgeStyle=none;html=1;entryX=0;entryY=1;entryDx=0;entryDy=0;" parent="1" target="oU0zXTRpxyhoC3hhVF3Y-1" edge="1">
                    <mxGeometry relative="1" as="geometry">
                        <mxPoint x="490" y="295" as="targetPoint"/>
                        <mxPoint x="370" y="280" as="sourcePoint"/>
                    </mxGeometry>
                </mxCell>
                <mxCell id="oU0zXTRpxyhoC3hhVF3Y-4" style="edgeStyle=none;html=1;entryX=0;entryY=0;entryDx=0;entryDy=0;" parent="1" target="oU0zXTRpxyhoC3hhVF3Y-3" edge="1">
                    <mxGeometry relative="1" as="geometry">
                        <mxPoint x="370" y="310" as="sourcePoint"/>
                    </mxGeometry>
                </mxCell>
                <mxCell id="gnIX7QEPiNbQv1JApcD0-86" value="PERSONA" style="rounded=0;whiteSpace=wrap;html=1;fillColor=#0050ef;fontColor=#ffffff;strokeColor=#001DBC;" parent="1" vertex="1">
                    <mxGeometry x="250" y="265" width="120" height="60" as="geometry"/>
                </mxCell>
                <mxCell id="gnIX7QEPiNbQv1JApcD0-87" style="edgeStyle=none;html=1;exitX=1;exitY=1;exitDx=0;exitDy=0;entryX=0.25;entryY=0;entryDx=0;entryDy=0;" parent="1" source="gnIX7QEPiNbQv1JApcD0-88" target="gnIX7QEPiNbQv1JApcD0-86" edge="1">
                    <mxGeometry relative="1" as="geometry"/>
                </mxCell>
                <mxCell id="gnIX7QEPiNbQv1JApcD0-88" value="NRO_LEG" style="ellipse;whiteSpace=wrap;html=1;" parent="1" vertex="1">
                    <mxGeometry x="130" y="165" width="120" height="80" as="geometry"/>
                </mxCell>
                <mxCell id="gnIX7QEPiNbQv1JApcD0-89" style="edgeStyle=none;html=1;entryX=0.5;entryY=0;entryDx=0;entryDy=0;" parent="1" source="gnIX7QEPiNbQv1JApcD0-90" target="gnIX7QEPiNbQv1JApcD0-86" edge="1">
                    <mxGeometry relative="1" as="geometry"/>
                </mxCell>
                <mxCell id="gnIX7QEPiNbQv1JApcD0-90" value="Nombre y Apellido" style="ellipse;whiteSpace=wrap;html=1;" parent="1" vertex="1">
                    <mxGeometry x="250" y="125" width="120" height="80" as="geometry"/>
                </mxCell>
                <mxCell id="gnIX7QEPiNbQv1JApcD0-91" style="edgeStyle=none;html=1;exitX=0;exitY=1;exitDx=0;exitDy=0;entryX=0.75;entryY=0;entryDx=0;entryDy=0;" parent="1" source="gnIX7QEPiNbQv1JApcD0-92" target="gnIX7QEPiNbQv1JApcD0-86" edge="1">
                    <mxGeometry relative="1" as="geometry"/>
                </mxCell>
                <mxCell id="gnIX7QEPiNbQv1JApcD0-92" value="Fecha de nacimiento" style="ellipse;whiteSpace=wrap;html=1;" parent="1" vertex="1">
                    <mxGeometry x="370" y="165" width="120" height="80" as="geometry"/>
                </mxCell>
                <mxCell id="gnIX7QEPiNbQv1JApcD0-107" style="edgeStyle=none;html=1;exitX=1;exitY=0;exitDx=0;exitDy=0;entryX=0.25;entryY=1;entryDx=0;entryDy=0;" parent="1" source="gnIX7QEPiNbQv1JApcD0-96" target="gnIX7QEPiNbQv1JApcD0-86" edge="1">
                    <mxGeometry relative="1" as="geometry"/>
                </mxCell>
                <mxCell id="gnIX7QEPiNbQv1JApcD0-96" value="Fecha inicio" style="ellipse;whiteSpace=wrap;html=1;" parent="1" vertex="1">
                    <mxGeometry x="130" y="345" width="120" height="80" as="geometry"/>
                </mxCell>
                <mxCell id="gnIX7QEPiNbQv1JApcD0-99" style="edgeStyle=none;html=1;exitX=1;exitY=0.5;exitDx=0;exitDy=0;entryX=0;entryY=0.5;entryDx=0;entryDy=0;" parent="1" source="gnIX7QEPiNbQv1JApcD0-100" target="gnIX7QEPiNbQv1JApcD0-86" edge="1">
                    <mxGeometry relative="1" as="geometry"/>
                </mxCell>
                <mxCell id="gnIX7QEPiNbQv1JApcD0-100" value="Estado" style="ellipse;whiteSpace=wrap;html=1;" parent="1" vertex="1">
                    <mxGeometry x="73" y="255" width="120" height="80" as="geometry"/>
                </mxCell>
                <mxCell id="gnIX7QEPiNbQv1JApcD0-105" style="edgeStyle=none;html=1;exitX=0;exitY=0;exitDx=0;exitDy=0;entryX=0.75;entryY=1;entryDx=0;entryDy=0;" parent="1" source="gnIX7QEPiNbQv1JApcD0-101" target="gnIX7QEPiNbQv1JApcD0-86" edge="1">
                    <mxGeometry relative="1" as="geometry"/>
                </mxCell>
                <mxCell id="gnIX7QEPiNbQv1JApcD0-101" value="email" style="ellipse;whiteSpace=wrap;html=1;" parent="1" vertex="1">
                    <mxGeometry x="370" y="345" width="120" height="80" as="geometry"/>
                </mxCell>
                <mxCell id="gnIX7QEPiNbQv1JApcD0-106" style="edgeStyle=none;html=1;exitX=0.5;exitY=0;exitDx=0;exitDy=0;" parent="1" source="gnIX7QEPiNbQv1JApcD0-103" target="gnIX7QEPiNbQv1JApcD0-86" edge="1">
                    <mxGeometry relative="1" as="geometry"/>
                </mxCell>
                <mxCell id="gnIX7QEPiNbQv1JApcD0-103" value="&lt;span style=&quot;color: rgb(240, 240, 240); font-family: Helvetica; font-size: 12px; font-style: normal; font-variant-ligatures: normal; font-variant-caps: normal; font-weight: 400; letter-spacing: normal; orphans: 2; text-align: center; text-indent: 0px; text-transform: none; widows: 2; word-spacing: 0px; -webkit-text-stroke-width: 0px; background-color: rgb(42, 37, 47); text-decoration-thickness: initial; text-decoration-style: initial; text-decoration-color: initial; float: none; display: inline !important;&quot;&gt;DNI / PASAPORTE&lt;/span&gt;" style="ellipse;whiteSpace=wrap;html=1;" parent="1" vertex="1">
                    <mxGeometry x="250" y="390" width="120" height="80" as="geometry"/>
                </mxCell>
                <mxCell id="gnIX7QEPiNbQv1JApcD0-109" value="CREDITOS" style="rounded=0;whiteSpace=wrap;html=1;fillColor=#0050ef;fontColor=#ffffff;strokeColor=#001DBC;" parent="1" vertex="1">
                    <mxGeometry x="790" y="140" width="120" height="60" as="geometry"/>
                </mxCell>
                <mxCell id="gnIX7QEPiNbQv1JApcD0-110" style="edgeStyle=none;html=1;exitX=1;exitY=1;exitDx=0;exitDy=0;entryX=0.25;entryY=0;entryDx=0;entryDy=0;" parent="1" source="gnIX7QEPiNbQv1JApcD0-111" target="gnIX7QEPiNbQv1JApcD0-109" edge="1">
                    <mxGeometry relative="1" as="geometry"/>
                </mxCell>
                <mxCell id="gnIX7QEPiNbQv1JApcD0-111" value="FECHA PAGO" style="ellipse;whiteSpace=wrap;html=1;" parent="1" vertex="1">
                    <mxGeometry x="670" y="40" width="120" height="80" as="geometry"/>
                </mxCell>
                <mxCell id="gnIX7QEPiNbQv1JApcD0-112" style="edgeStyle=none;html=1;entryX=0.5;entryY=0;entryDx=0;entryDy=0;" parent="1" source="gnIX7QEPiNbQv1JApcD0-113" target="gnIX7QEPiNbQv1JApcD0-109" edge="1">
                    <mxGeometry relative="1" as="geometry"/>
                </mxCell>
                <mxCell id="gnIX7QEPiNbQv1JApcD0-113" value="CREDITOS&lt;br&gt;DISPONIBLE" style="ellipse;whiteSpace=wrap;html=1;" parent="1" vertex="1">
                    <mxGeometry x="790" width="120" height="80" as="geometry"/>
                </mxCell>
                <mxCell id="gnIX7QEPiNbQv1JApcD0-114" style="edgeStyle=none;html=1;exitX=0;exitY=1;exitDx=0;exitDy=0;entryX=0.75;entryY=0;entryDx=0;entryDy=0;" parent="1" source="gnIX7QEPiNbQv1JApcD0-115" target="gnIX7QEPiNbQv1JApcD0-109" edge="1">
                    <mxGeometry relative="1" as="geometry"/>
                </mxCell>
                <mxCell id="gnIX7QEPiNbQv1JApcD0-115" value="VENCIMIENTO&lt;br&gt;CREDITOS" style="ellipse;whiteSpace=wrap;html=1;" parent="1" vertex="1">
                    <mxGeometry x="910" y="40" width="120" height="80" as="geometry"/>
                </mxCell>
                <mxCell id="gnIX7QEPiNbQv1JApcD0-116" style="edgeStyle=none;html=1;exitX=1;exitY=0;exitDx=0;exitDy=0;entryX=0.25;entryY=1;entryDx=0;entryDy=0;" parent="1" source="gnIX7QEPiNbQv1JApcD0-117" target="gnIX7QEPiNbQv1JApcD0-109" edge="1">
                    <mxGeometry relative="1" as="geometry"/>
                </mxCell>
                <mxCell id="gnIX7QEPiNbQv1JApcD0-117" value="NRO_LEG" style="ellipse;whiteSpace=wrap;html=1;" parent="1" vertex="1">
                    <mxGeometry x="670" y="220" width="120" height="80" as="geometry"/>
                </mxCell>
                <mxCell id="gnIX7QEPiNbQv1JApcD0-120" style="edgeStyle=none;html=1;exitX=0;exitY=0;exitDx=0;exitDy=0;entryX=0.75;entryY=1;entryDx=0;entryDy=0;" parent="1" source="gnIX7QEPiNbQv1JApcD0-121" target="gnIX7QEPiNbQv1JApcD0-109" edge="1">
                    <mxGeometry relative="1" as="geometry"/>
                </mxCell>
                <mxCell id="gnIX7QEPiNbQv1JApcD0-121" value="CBU" style="ellipse;whiteSpace=wrap;html=1;" parent="1" vertex="1">
                    <mxGeometry x="910" y="220" width="120" height="80" as="geometry"/>
                </mxCell>
                <mxCell id="gnIX7QEPiNbQv1JApcD0-122" style="edgeStyle=none;html=1;exitX=0.5;exitY=0;exitDx=0;exitDy=0;" parent="1" source="gnIX7QEPiNbQv1JApcD0-123" target="gnIX7QEPiNbQv1JApcD0-109" edge="1">
                    <mxGeometry relative="1" as="geometry"/>
                </mxCell>
                <mxCell id="gnIX7QEPiNbQv1JApcD0-123" value="Medio de pago" style="ellipse;whiteSpace=wrap;html=1;" parent="1" vertex="1">
                    <mxGeometry x="790" y="265" width="120" height="80" as="geometry"/>
                </mxCell>
                <mxCell id="TO8Oa9yxd8M-gExZvo1c-1" value="CURSOS" style="rounded=0;whiteSpace=wrap;html=1;fillColor=#0050ef;fontColor=#ffffff;strokeColor=#001DBC;" parent="1" vertex="1">
                    <mxGeometry x="790" y="560" width="120" height="60" as="geometry"/>
                </mxCell>
                <mxCell id="TO8Oa9yxd8M-gExZvo1c-2" style="edgeStyle=none;html=1;exitX=1;exitY=0.5;exitDx=0;exitDy=0;entryX=0;entryY=0.5;entryDx=0;entryDy=0;" parent="1" source="TO8Oa9yxd8M-gExZvo1c-3" target="TO8Oa9yxd8M-gExZvo1c-1" edge="1">
                    <mxGeometry relative="1" as="geometry"/>
                </mxCell>
                <mxCell id="TO8Oa9yxd8M-gExZvo1c-3" value="NOMBRE" style="ellipse;whiteSpace=wrap;html=1;" parent="1" vertex="1">
                    <mxGeometry x="590" y="580" width="120" height="80" as="geometry"/>
                </mxCell>
                <mxCell id="TO8Oa9yxd8M-gExZvo1c-4" style="edgeStyle=none;html=1;entryX=0.5;entryY=0;entryDx=0;entryDy=0;" parent="1" source="TO8Oa9yxd8M-gExZvo1c-5" target="TO8Oa9yxd8M-gExZvo1c-1" edge="1">
                    <mxGeometry relative="1" as="geometry"/>
                </mxCell>
                <mxCell id="TO8Oa9yxd8M-gExZvo1c-5" value="NIVEL" style="ellipse;whiteSpace=wrap;html=1;" parent="1" vertex="1">
                    <mxGeometry x="740" y="425" width="120" height="80" as="geometry"/>
                </mxCell>
                <mxCell id="TO8Oa9yxd8M-gExZvo1c-6" style="edgeStyle=none;html=1;exitX=0;exitY=1;exitDx=0;exitDy=0;entryX=0.75;entryY=0;entryDx=0;entryDy=0;" parent="1" source="TO8Oa9yxd8M-gExZvo1c-7" target="TO8Oa9yxd8M-gExZvo1c-1" edge="1">
                    <mxGeometry relative="1" as="geometry"/>
                </mxCell>
                <mxCell id="TO8Oa9yxd8M-gExZvo1c-7" value="DURACION" style="ellipse;whiteSpace=wrap;html=1;" parent="1" vertex="1">
                    <mxGeometry x="870" y="440" width="120" height="80" as="geometry"/>
                </mxCell>
                <mxCell id="TO8Oa9yxd8M-gExZvo1c-8" style="edgeStyle=none;html=1;exitX=1;exitY=0;exitDx=0;exitDy=0;entryX=0.25;entryY=1;entryDx=0;entryDy=0;" parent="1" source="TO8Oa9yxd8M-gExZvo1c-9" target="TO8Oa9yxd8M-gExZvo1c-1" edge="1">
                    <mxGeometry relative="1" as="geometry"/>
                </mxCell>
                <mxCell id="TO8Oa9yxd8M-gExZvo1c-9" value="ID_CURSO" style="ellipse;whiteSpace=wrap;html=1;" parent="1" vertex="1">
                    <mxGeometry x="680" y="690" width="120" height="80" as="geometry"/>
                </mxCell>
                <mxCell id="TO8Oa9yxd8M-gExZvo1c-10" style="edgeStyle=none;html=1;exitX=0;exitY=0;exitDx=0;exitDy=0;entryX=0.75;entryY=1;entryDx=0;entryDy=0;" parent="1" source="TO8Oa9yxd8M-gExZvo1c-11" target="TO8Oa9yxd8M-gExZvo1c-1" edge="1">
                    <mxGeometry relative="1" as="geometry"/>
                </mxCell>
                <mxCell id="TO8Oa9yxd8M-gExZvo1c-11" value="HORA" style="ellipse;whiteSpace=wrap;html=1;" parent="1" vertex="1">
                    <mxGeometry x="960" y="670" width="120" height="80" as="geometry"/>
                </mxCell>
                <mxCell id="TO8Oa9yxd8M-gExZvo1c-12" style="edgeStyle=none;html=1;exitX=0.5;exitY=0;exitDx=0;exitDy=0;" parent="1" source="TO8Oa9yxd8M-gExZvo1c-13" target="TO8Oa9yxd8M-gExZvo1c-1" edge="1">
                    <mxGeometry relative="1" as="geometry"/>
                </mxCell>
                <mxCell id="TO8Oa9yxd8M-gExZvo1c-13" value="FECHAS" style="ellipse;whiteSpace=wrap;html=1;" parent="1" vertex="1">
                    <mxGeometry x="830" y="720" width="120" height="80" as="geometry"/>
                </mxCell>
                <mxCell id="oU0zXTRpxyhoC3hhVF3Y-6" style="edgeStyle=none;html=1;exitX=0;exitY=0.5;exitDx=0;exitDy=0;entryX=1;entryY=0.25;entryDx=0;entryDy=0;" parent="1" source="TO8Oa9yxd8M-gExZvo1c-14" target="TO8Oa9yxd8M-gExZvo1c-1" edge="1">
                    <mxGeometry relative="1" as="geometry"/>
                </mxCell>
                <mxCell id="TO8Oa9yxd8M-gExZvo1c-14" value="PRECIO" style="ellipse;whiteSpace=wrap;html=1;" parent="1" vertex="1">
                    <mxGeometry x="970" y="500" width="120" height="80" as="geometry"/>
                </mxCell>
                <mxCell id="oU0zXTRpxyhoC3hhVF3Y-2" style="edgeStyle=none;html=1;" parent="1" source="oU0zXTRpxyhoC3hhVF3Y-1" target="gnIX7QEPiNbQv1JApcD0-109" edge="1">
                    <mxGeometry relative="1" as="geometry"/>
                </mxCell>
                <mxCell id="oU0zXTRpxyhoC3hhVF3Y-1" value="POSEE" style="rhombus;whiteSpace=wrap;html=1;" parent="1" vertex="1">
                    <mxGeometry x="550" y="130" width="150" height="80" as="geometry"/>
                </mxCell>
                <mxCell id="oU0zXTRpxyhoC3hhVF3Y-5" style="edgeStyle=none;html=1;exitX=1;exitY=1;exitDx=0;exitDy=0;entryX=0.25;entryY=0;entryDx=0;entryDy=0;" parent="1" source="oU0zXTRpxyhoC3hhVF3Y-3" target="TO8Oa9yxd8M-gExZvo1c-1" edge="1">
                    <mxGeometry relative="1" as="geometry"/>
                </mxCell>
                <mxCell id="oU0zXTRpxyhoC3hhVF3Y-3" value="IINSCRIPTO" style="rhombus;whiteSpace=wrap;html=1;" parent="1" vertex="1">
                    <mxGeometry x="550" y="380" width="150" height="80" as="geometry"/>
                </mxCell>
                <mxCell id="oU0zXTRpxyhoC3hhVF3Y-38" style="edgeStyle=none;html=1;entryX=1;entryY=0.5;entryDx=0;entryDy=0;" parent="1" source="oU0zXTRpxyhoC3hhVF3Y-21" target="oU0zXTRpxyhoC3hhVF3Y-37" edge="1">
                    <mxGeometry relative="1" as="geometry"/>
                </mxCell>
                <mxCell id="oU0zXTRpxyhoC3hhVF3Y-21" value="CONTENIDO" style="rounded=0;whiteSpace=wrap;html=1;fillColor=#0050ef;fontColor=#ffffff;strokeColor=#001DBC;" parent="1" vertex="1">
                    <mxGeometry x="1407" y="640" width="120" height="60" as="geometry"/>
                </mxCell>
                <mxCell id="oU0zXTRpxyhoC3hhVF3Y-22" style="edgeStyle=none;html=1;exitX=1;exitY=1;exitDx=0;exitDy=0;entryX=0.25;entryY=0;entryDx=0;entryDy=0;" parent="1" source="oU0zXTRpxyhoC3hhVF3Y-23" target="oU0zXTRpxyhoC3hhVF3Y-21" edge="1">
                    <mxGeometry relative="1" as="geometry"/>
                </mxCell>
                <mxCell id="oU0zXTRpxyhoC3hhVF3Y-23" value="NRO" style="ellipse;whiteSpace=wrap;html=1;" parent="1" vertex="1">
                    <mxGeometry x="1287" y="540" width="120" height="80" as="geometry"/>
                </mxCell>
                <mxCell id="oU0zXTRpxyhoC3hhVF3Y-24" style="edgeStyle=none;html=1;entryX=0.5;entryY=0;entryDx=0;entryDy=0;" parent="1" source="oU0zXTRpxyhoC3hhVF3Y-25" target="oU0zXTRpxyhoC3hhVF3Y-21" edge="1">
                    <mxGeometry relative="1" as="geometry"/>
                </mxCell>
                <mxCell id="oU0zXTRpxyhoC3hhVF3Y-25" value="NIVEL" style="ellipse;whiteSpace=wrap;html=1;" parent="1" vertex="1">
                    <mxGeometry x="1407" y="500" width="120" height="80" as="geometry"/>
                </mxCell>
                <mxCell id="oU0zXTRpxyhoC3hhVF3Y-26" style="edgeStyle=none;html=1;exitX=0;exitY=1;exitDx=0;exitDy=0;entryX=0.75;entryY=0;entryDx=0;entryDy=0;" parent="1" source="oU0zXTRpxyhoC3hhVF3Y-27" target="oU0zXTRpxyhoC3hhVF3Y-21" edge="1">
                    <mxGeometry relative="1" as="geometry"/>
                </mxCell>
                <mxCell id="oU0zXTRpxyhoC3hhVF3Y-27" value="LIBRO" style="ellipse;whiteSpace=wrap;html=1;" parent="1" vertex="1">
                    <mxGeometry x="1527" y="540" width="120" height="80" as="geometry"/>
                </mxCell>
                <mxCell id="oU0zXTRpxyhoC3hhVF3Y-28" style="edgeStyle=none;html=1;exitX=1;exitY=0;exitDx=0;exitDy=0;entryX=0.25;entryY=1;entryDx=0;entryDy=0;" parent="1" source="oU0zXTRpxyhoC3hhVF3Y-29" target="oU0zXTRpxyhoC3hhVF3Y-21" edge="1">
                    <mxGeometry relative="1" as="geometry"/>
                </mxCell>
                <mxCell id="oU0zXTRpxyhoC3hhVF3Y-29" value="DESCRIPCIÓN" style="ellipse;whiteSpace=wrap;html=1;" parent="1" vertex="1">
                    <mxGeometry x="1287" y="720" width="120" height="80" as="geometry"/>
                </mxCell>
                <mxCell id="oU0zXTRpxyhoC3hhVF3Y-36" style="edgeStyle=none;html=1;entryX=1;entryY=0.5;entryDx=0;entryDy=0;" parent="1" source="oU0zXTRpxyhoC3hhVF3Y-31" target="oU0zXTRpxyhoC3hhVF3Y-21" edge="1">
                    <mxGeometry relative="1" as="geometry"/>
                </mxCell>
                <mxCell id="oU0zXTRpxyhoC3hhVF3Y-31" value="CATEGORIA" style="ellipse;whiteSpace=wrap;html=1;" parent="1" vertex="1">
                    <mxGeometry x="1570" y="630" width="120" height="80" as="geometry"/>
                </mxCell>
                <mxCell id="oU0zXTRpxyhoC3hhVF3Y-32" style="edgeStyle=none;html=1;exitX=0;exitY=0;exitDx=0;exitDy=0;entryX=0.75;entryY=1;entryDx=0;entryDy=0;" parent="1" source="oU0zXTRpxyhoC3hhVF3Y-33" target="oU0zXTRpxyhoC3hhVF3Y-21" edge="1">
                    <mxGeometry relative="1" as="geometry"/>
                </mxCell>
                <mxCell id="oU0zXTRpxyhoC3hhVF3Y-33" value="EDITORIAL" style="ellipse;whiteSpace=wrap;html=1;" parent="1" vertex="1">
                    <mxGeometry x="1527" y="720" width="120" height="80" as="geometry"/>
                </mxCell>
                <mxCell id="oU0zXTRpxyhoC3hhVF3Y-34" style="edgeStyle=none;html=1;exitX=0.5;exitY=0;exitDx=0;exitDy=0;" parent="1" source="oU0zXTRpxyhoC3hhVF3Y-35" target="oU0zXTRpxyhoC3hhVF3Y-21" edge="1">
                    <mxGeometry relative="1" as="geometry"/>
                </mxCell>
                <mxCell id="oU0zXTRpxyhoC3hhVF3Y-35" value="&lt;span style=&quot;color: rgb(240, 240, 240); font-family: Helvetica; font-size: 12px; font-style: normal; font-variant-ligatures: normal; font-variant-caps: normal; font-weight: 400; letter-spacing: normal; orphans: 2; text-align: center; text-indent: 0px; text-transform: none; widows: 2; word-spacing: 0px; -webkit-text-stroke-width: 0px; background-color: rgb(42, 37, 47); text-decoration-thickness: initial; text-decoration-style: initial; text-decoration-color: initial; float: none; display: inline !important;&quot;&gt;FECHA EDICIO&lt;/span&gt;" style="ellipse;whiteSpace=wrap;html=1;" parent="1" vertex="1">
                    <mxGeometry x="1407" y="765" width="120" height="80" as="geometry"/>
                </mxCell>
                <mxCell id="oU0zXTRpxyhoC3hhVF3Y-39" style="edgeStyle=none;html=1;exitX=0;exitY=0.5;exitDx=0;exitDy=0;entryX=1;entryY=0.75;entryDx=0;entryDy=0;" parent="1" source="oU0zXTRpxyhoC3hhVF3Y-37" target="TO8Oa9yxd8M-gExZvo1c-1" edge="1">
                    <mxGeometry relative="1" as="geometry"/>
                </mxCell>
                <mxCell id="oU0zXTRpxyhoC3hhVF3Y-37" value="CONTIENE" style="rhombus;whiteSpace=wrap;html=1;" parent="1" vertex="1">
                    <mxGeometry x="1160" y="630" width="150" height="80" as="geometry"/>
                </mxCell>
                <mxCell id="oU0zXTRpxyhoC3hhVF3Y-41" style="edgeStyle=none;html=1;entryX=0;entryY=0.25;entryDx=0;entryDy=0;" parent="1" source="oU0zXTRpxyhoC3hhVF3Y-40" target="TO8Oa9yxd8M-gExZvo1c-1" edge="1">
                    <mxGeometry relative="1" as="geometry"/>
                </mxCell>
                <mxCell id="oU0zXTRpxyhoC3hhVF3Y-40" value="AULA" style="ellipse;whiteSpace=wrap;html=1;" parent="1" vertex="1">
                    <mxGeometry x="600" y="480" width="120" height="80" as="geometry"/>
                </mxCell>
                <mxCell id="oU0zXTRpxyhoC3hhVF3Y-43" style="edgeStyle=none;html=1;entryX=1;entryY=0.5;entryDx=0;entryDy=0;" parent="1" source="oU0zXTRpxyhoC3hhVF3Y-42" target="gnIX7QEPiNbQv1JApcD0-86" edge="1">
                    <mxGeometry relative="1" as="geometry"/>
                </mxCell>
                <mxCell id="oU0zXTRpxyhoC3hhVF3Y-42" value="TIPO&lt;br&gt;ALUMNO / PROF." style="ellipse;whiteSpace=wrap;html=1;" parent="1" vertex="1">
                    <mxGeometry x="450" y="255" width="120" height="80" as="geometry"/>
                </mxCell>
            </root>
        </mxGraphModel>
    </diagram>
</mxfile>